<svg width="246" height="247" viewBox="0 0 246 247" fill="none" xmlns="http://www.w3.org/2000/svg">
    <path d="M206.24 75.8882C205.773 75.8456 205.306 75.8029 204.627 75.7603C204.924 76.2719 205.137 76.6982 205.349 77.0819C207.174 80.3221 208.915 83.5623 210.783 86.7172C211.335 87.6551 212.057 88.6357 212.906 89.2752C215.326 91.1085 217.83 92.8138 220.335 94.5618C220.505 94.5618 220.632 94.5618 220.802 94.5618C221.142 95.1587 221.439 95.7982 221.863 96.3098C223.052 97.6314 224.496 98.7399 225.557 100.147C228.868 104.581 232.052 109.057 235.194 113.576C236.213 115.069 236.85 116.859 237.614 118.522C237.826 118.948 237.741 119.503 237.784 120.014C237.614 120.099 237.486 120.142 237.317 120.227C236.935 119.801 236.468 119.375 236.17 118.906C234.685 116.518 233.241 114.088 231.755 111.701C228.401 106.329 224.411 101.468 219.783 97.1625C219.401 96.7788 218.849 96.5656 218.382 96.2672C216.896 95.0308 215.368 93.7944 213.882 92.6007C213.797 92.6433 213.84 92.6007 213.755 92.6433C213.797 92.9844 213.84 93.3681 213.882 93.7091C214.943 97.0772 215.962 100.445 217.024 103.813C218.849 109.526 219.359 115.41 219.953 121.336C219.995 121.677 219.911 122.103 220.08 122.359C221.736 125.173 222.118 128.37 223.18 131.355C223.349 131.824 223.604 132.207 223.774 132.676C223.816 133.188 223.816 133.7 223.944 134.169C225.005 137.835 226.151 141.502 227.17 145.168C228.868 151.307 230.524 157.447 232.137 163.586C232.35 164.353 232.604 165.206 231.628 166.144C231.246 165.632 230.821 165.249 230.694 164.78C229.208 159.834 227.722 154.889 226.364 149.901C225.302 146.106 224.453 142.226 223.477 138.389C223.222 137.451 222.925 136.513 222.628 135.576C221.227 132.676 220.802 129.607 220.76 126.367C220.632 126.239 220.547 126.196 220.42 126.068L219.995 126.111C219.995 126.836 219.995 127.603 219.995 128.328C219.911 138.901 218.128 149.218 214.689 159.195C213.797 161.795 212.651 164.353 211.674 166.911C211.42 167.551 210.995 168.19 211.292 168.873C211.377 169.384 211.462 170.194 211.547 170.706C211.377 172.838 211.25 174.927 211.08 177.058C210.613 177.101 210.316 177.271 210.358 177.826C210.486 179.019 210.613 180.213 210.571 181.407C210.358 185.372 209.934 189.294 209.807 193.259C209.679 197.309 209.764 201.36 209.764 205.41C209.764 207.158 209.424 207.883 208.618 207.712C207.344 207.414 207.684 206.305 207.641 205.452C207.599 203.534 207.599 201.615 207.556 199.697C207.472 196.926 207.217 194.154 207.302 191.426C207.387 188.314 207.769 185.244 208.023 182.132C208.321 179.744 208.66 177.399 208.957 175.012C208.957 174.927 209 174.884 209 174.799C209.042 174.5 209.127 174.074 209.212 173.775V172.582C209.127 172.582 209 172.539 208.915 172.539C208.745 172.88 208.618 173.221 208.448 173.52C208.193 174.031 207.981 174.543 207.684 175.012C205.519 178.465 203.269 181.876 201.146 185.372C200.764 185.969 200.467 186.736 200.424 187.461C200.339 189.166 200.467 190.872 200.509 192.534C200.467 192.662 200.382 192.748 200.339 192.875C199.702 193.302 199.066 193.259 198.471 192.918C198.386 192.662 198.047 193.302 197.919 193.003C198.174 192.151 198.726 190.531 199.023 189.678C199.023 189.593 199.066 189.507 199.066 189.379C199.023 189.038 199.023 188.697 198.981 188.399C198.769 188.569 198.514 188.783 198.302 188.953C196.476 191.042 194.693 193.131 192.825 195.178C192.146 195.945 191.764 196.67 191.424 197.693C190.787 199.697 189.683 201.573 188.919 203.577C188.41 204.941 187.306 206.135 187.603 207.755C187.348 207.883 186.966 207.925 186.881 208.138C185.99 210.057 185.056 211.975 184.334 213.979C182.424 219.394 180.598 224.808 178.773 230.265C178.518 231.075 178.178 231.843 177.796 232.61C177.626 232.909 177.244 233.122 176.947 233.335C176.82 233.292 176.692 233.207 176.565 233.164C176.65 232.525 176.65 231.843 176.82 231.203C178.136 226.812 179.452 222.378 180.895 218.029C181.575 216.026 182.594 214.15 183.4 212.189C183.612 211.634 183.655 210.995 183.782 210.355C183.91 210.185 184.037 210.057 184.164 209.886C185.693 206.476 187.221 203.022 188.792 199.612C181.744 205.538 174.273 210.782 166.037 214.192C165.187 215.94 164.423 217.39 163.659 218.882C162.937 218.839 162.088 219.053 162.003 217.901L164.126 215.471C163.999 215.258 163.999 215.301 163.871 215.088C161.834 215.898 159.796 216.708 157.758 217.518C156.739 217.774 155.763 218.072 154.744 218.328C150.583 218.925 147.229 221.355 143.493 222.932C143.366 222.975 143.324 223.316 143.281 223.487C142.814 223.657 142.305 223.742 141.88 223.955C138.611 225.661 135.385 227.409 132.116 229.072C130.63 229.839 129.017 230.436 127.531 231.246C125.62 232.269 123.837 233.505 121.927 234.571C119.125 236.106 116.281 237.598 113.351 238.92C112.078 239.474 111.016 240.753 109.445 240.455C108.978 239.559 109.615 239.346 110.082 239.09C112.078 238.025 114.073 236.959 116.068 235.893C119.167 234.188 122.182 232.397 125.281 230.692C129.441 228.389 133.602 226.172 137.762 223.913C138.993 223.273 140.267 222.719 141.541 222.122L145.064 220.459C145.022 220.204 145.022 220.246 144.979 219.991C143.663 219.991 142.305 219.991 140.989 219.991C140.776 219.82 140.649 219.735 140.437 219.564C140.182 218.498 140.776 218.072 141.498 217.816C142.899 217.305 144.343 216.964 145.786 216.622C154.744 214.661 163.277 211.677 171.301 207.2C171.725 206.987 172.15 206.817 172.574 206.604C172.532 206.433 172.447 206.305 172.405 206.135C170.961 206.518 169.518 206.859 168.117 207.243C166.801 207.456 165.485 207.627 164.169 207.84C162.173 207.925 160.178 208.01 158.14 208.138C157.164 208.181 156.187 208.394 155.211 208.437C154.362 208.479 153.428 208.948 152.494 207.797C153.428 207.414 154.149 206.987 154.914 206.859C157.758 206.476 160.645 206.262 163.489 205.921C165.272 205.708 167.013 205.367 168.796 205.069C175.037 203.96 180.683 201.701 185.48 197.395C191.339 192.108 196.688 186.395 201.061 179.787C201.358 179.36 201.57 178.892 201.57 178.081C200.764 178.593 199.957 179.062 199.193 179.574C198.811 179.659 198.386 179.659 198.004 179.829C193.122 182.174 188.197 184.519 183.315 186.864C182.721 187.162 182.127 187.333 181.447 186.438C181.787 186.011 182.127 185.457 182.594 185.116C183.4 184.519 184.249 184.05 185.141 183.581C190.32 181.023 195.5 178.508 200.721 175.992C201.231 175.737 201.698 175.438 202.207 175.182C204.16 174.202 205.688 172.795 206.538 170.706C207.132 169.256 207.896 167.892 208.575 166.485C209.042 165.462 209.509 164.439 209.976 163.415C210.443 162.222 210.868 161.028 211.335 159.834C211.208 159.706 211.208 159.749 211.08 159.621C210.783 159.834 210.528 160.005 210.231 160.218C209.891 159.493 209.594 158.768 209.255 158.044C211.292 157.404 212.651 156.168 213.203 154.036C215.198 146.66 216.769 139.199 216.939 131.483C217.024 131.27 217.109 131.099 217.194 130.886C217.151 130.545 217.109 130.246 217.024 129.522C215.962 130.971 214.859 131.994 214.731 133.572C213.67 134.595 212.396 135.49 211.632 136.684C208.363 141.971 203.651 146.063 199.872 150.881C199.151 151.819 198.174 152.586 197.325 153.439C196.773 153.993 196.179 154.42 195.16 154.377C195.372 153.951 195.415 153.695 195.627 153.482C197.537 151.393 199.49 149.346 201.401 147.215C203.608 144.742 205.773 142.226 207.896 139.668C209.934 137.238 211.844 134.68 213.797 132.165C214.052 131.824 214.179 131.44 214.349 131.056C214.604 130.715 214.859 130.374 215.071 130.033C216.387 128.115 217.066 126.196 216.939 123.681C216.472 114.941 214.901 106.499 212.141 98.2283C211.759 97.0346 211.292 95.8408 210.528 94.6897C210.528 95.4571 210.528 96.2245 210.528 97.0346C210.528 97.802 210.528 98.612 210.528 99.3794C210.358 99.9763 210.146 100.531 210.061 101.127C209.976 101.98 210.104 102.875 209.934 103.685C208.83 108.844 206.707 113.662 204.415 118.351C203.396 120.441 202.335 122.53 201.273 124.619C200.849 125.471 200.636 126.452 199.575 127.262C199.533 126.58 199.405 126.153 199.533 125.77C200.085 124.107 200.636 122.402 201.358 120.782C202.632 117.925 204.118 115.154 205.306 112.297C206.41 109.697 207.429 107.054 208.151 104.325C208.745 102.023 208.873 99.5926 209.17 97.2051C208.873 94.4765 208.788 91.6627 208.193 89.0194C207.811 87.3567 206.75 85.7792 205.901 84.2444C201.91 77.1246 196.985 70.7295 190.999 65.1871C184.716 59.3463 177.711 54.6139 169.73 51.3311C169.348 51.1606 168.966 51.0753 168.456 51.1606C170.537 53.7186 172.617 56.2766 174.697 58.8347C175.928 60.2842 177.244 61.6911 178.348 63.2259C182.636 69.28 186.881 75.3766 191.042 81.5159C192.698 83.9886 194.099 86.6319 195.542 89.1899C195.754 89.5737 195.754 90.1279 195.882 90.5969C195.287 90.5969 195.033 90.469 194.905 90.2984C193.462 88.2094 192.103 86.035 190.66 83.946C187.985 80.0663 185.268 76.144 182.509 72.307C179.749 68.4699 176.905 64.6755 174.06 60.8811C173.806 60.54 173.339 60.3268 172.957 60.0284C172.447 59.261 172.023 58.4936 171.471 57.7688C169.772 55.5092 168.032 53.2496 166.334 50.99C165.485 49.8816 164.466 49.1568 163.065 48.8583C159.244 48.0909 155.465 47.1956 151.687 46.3856C150.88 46.215 149.904 46.2577 149.649 45.2345C149.352 44.0407 149.819 42.9322 150.541 42.0796C150.796 41.7385 151.56 41.6959 152.069 41.7385C152.664 41.7385 153.3 41.9517 153.895 42.0796C156.399 42.6764 158.947 42.4206 161.451 42.0369C164.253 42.3354 166.971 41.4827 169.857 41.9943C173.169 42.5485 176.608 42.2501 179.961 42.5912C182.806 42.847 185.65 43.4438 188.495 43.9981C189.047 44.0834 189.811 44.3392 189.344 45.5755C188.282 45.5329 187.094 45.5329 185.947 45.405C184.504 45.2345 183.061 44.936 181.575 44.7229C178.221 44.2965 174.909 43.8276 171.556 43.5291C170.367 43.4438 169.051 42.9749 167.905 43.9128C167.607 43.8276 167.31 43.6997 167.013 43.6144C165.654 43.5718 164.296 43.4012 162.937 43.4438C162.385 43.4438 162.301 43.9128 162.895 44.2113C170.876 46.5135 178.136 50.2226 184.844 55.0403C185.82 55.7224 186.797 56.4472 187.73 57.2146C188.792 58.1525 191.679 58.6215 191.679 58.6215C193.971 58.9199 196.264 59.261 198.556 59.5594C200.042 59.73 201.486 60.0284 202.971 59.9431C205.901 59.8152 208.873 59.4315 211.802 59.2184C212.778 59.1757 213.882 58.7068 214.901 59.9005C214.349 60.2416 213.925 60.6679 213.458 60.7532C211.038 61.1369 208.575 61.5632 206.155 61.6911C203.269 61.819 200.339 61.5632 197.452 61.478C196.391 61.3501 195.372 61.2648 194.311 61.1369C193.716 61.009 193.122 60.9237 192.528 60.7958C192.443 60.9664 192.443 60.9664 192.316 61.1369C192.485 61.3074 192.655 61.5206 192.825 61.6911C195.457 64.5476 198.302 67.2762 200.679 70.3032C202.292 72.3496 204.67 73.4154 207.005 73.8418C206.962 74.9502 206.368 75.2913 206.24 75.8882Z" fill="#8D986F"/>
    <path d="M35.6191 106.244C35.4068 107.779 36.171 108.93 37.2748 110.209C37.572 109.612 37.8267 109.228 37.9116 108.802C39.355 103.174 41.3928 97.7599 43.8976 92.5159C44.025 92.2175 44.1523 91.9191 44.1948 91.6206C44.5344 89.9153 44.7891 88.1673 45.1288 86.4619C45.6382 83.1365 46.3175 79.8111 46.6147 76.443C46.9967 72.3928 47.8458 68.4705 49.3317 64.7187C50.1383 62.6296 51.2846 60.6258 52.3035 58.6221C52.4308 58.3236 52.8978 58.1957 53.2799 57.9399C53.3648 59.3895 53.3648 59.3895 52.728 60.7111C49.2893 67.4473 48.0156 74.7376 47.5486 82.1986C47.2515 83.6055 46.9543 85.055 46.6996 86.4619C46.8694 86.5472 46.8269 86.5046 47.0392 86.5898C47.5486 85.7798 48.0156 85.0124 48.5251 84.2023C53.9592 75.3771 60.7094 67.7031 68.6907 61.1374C70.2615 59.8584 71.6625 58.5368 72.3417 56.5756C72.3842 56.533 72.5116 56.533 72.5116 56.4904C72.5116 56.3625 72.4691 56.2772 72.4691 56.1493C72.4266 55.8509 72.4266 55.5951 72.3842 55.2966C72.7663 54.8703 73.3606 54.4866 73.5304 53.975C75.1861 48.5178 76.7569 43.0181 78.3702 37.5183C78.4551 37.3051 78.6674 37.092 78.7947 36.9214C79.7287 37.1346 79.6014 37.7315 79.474 38.2857C79.2617 39.181 79.007 40.0763 78.7523 40.929C77.8183 44.5529 77.139 48.2194 75.4833 51.6301C75.1437 52.3549 75.1437 53.2502 75.0163 54.0602H74.9739C74.8041 54.2308 74.6342 54.4013 74.4644 54.5292C74.2097 55.2966 73.955 55.9361 73.7003 56.7035C73.7003 56.8314 73.7427 57.002 73.7427 57.1299C73.9974 56.9593 74.2097 56.7888 74.4644 56.6183C79.3042 53.1223 84.4836 50.3085 89.8328 47.7504C91.9979 46.7272 93.3564 44.894 94.4602 42.8049C94.8848 42.5491 95.3518 42.4212 95.6489 42.0801C97.8566 39.5221 100.064 36.9214 102.229 34.3208C104.607 31.5069 106.942 28.6505 109.277 25.794C111.102 23.5344 112.843 21.2322 114.668 18.93C115.135 18.3331 115.56 18.3331 115.942 19.0152C115.348 19.9958 114.796 20.9764 114.159 21.8717C112.843 23.6197 111.527 25.3677 110.126 27.073C107.027 30.8674 103.885 34.5766 100.786 38.3284C99.8094 39.5221 98.833 40.6732 97.8565 41.867L94.5451 44.9366C94.6725 45.1498 94.6301 45.1071 94.7574 45.3629C95.4791 45.1924 96.2433 45.0219 96.965 44.8087C101.89 43.3591 106.814 41.9096 111.781 40.5027C112.248 40.3748 112.758 40.2895 113.225 40.2042C114.753 40.0337 115.942 39.4795 117.003 38.2857C118.15 37.0067 119.678 36.0261 120.994 34.875C121.418 34.5339 121.758 34.1502 122.14 33.7665L123.329 35.4719C122.013 36.4525 120.654 37.433 119.338 38.4136C119.423 38.6268 119.423 38.6268 119.508 38.84C121.461 38.6694 123.159 38.8826 123.117 41.4833C121.249 42.5491 119.084 42.5491 116.791 42.9328C117.258 43.2312 117.555 43.4018 117.852 43.6149C118.277 43.8708 118.659 44.2545 119.084 44.3397C121.079 44.7234 122.777 45.704 124.39 46.8551C126.428 48.3473 128.551 49.7116 130.546 51.2464C133.221 53.2928 135.895 55.3392 139.079 56.5756C140.608 57.1725 142.136 57.5988 143.664 58.1531C144.301 58.3662 145.065 58.4942 144.98 59.4747C144.131 60.1142 143.325 59.6879 142.561 59.4747C137.636 58.0678 133.39 55.4245 129.4 52.3975C125.112 49.1573 120.824 46.0451 115.56 44.5529C114.881 44.3824 114.201 44.2118 113.522 44.0413C112.758 44.0413 111.994 43.8708 111.314 44.0413C107.451 45.1071 103.63 46.2156 99.767 47.3241C98.0264 48.0062 96.2858 48.6884 94.5027 49.3705C91.6583 50.8201 88.6441 51.758 85.7996 53.8471C87.8799 54.785 89.6205 55.1261 91.3611 53.8044C91.3186 54.8703 91.2762 55.8935 91.2337 56.9593C88.6865 56.9167 86.1393 56.8741 84.059 55.0834C83.9741 54.9982 83.8043 54.9982 83.6769 54.9555C74.6767 59.7305 62.4924 69.9627 57.9074 76.7414C60.1999 75.6329 62.3651 75.2492 64.1057 73.8423C65.2944 73.4586 66.4831 73.0749 67.6718 72.6486C70.9408 71.5401 74.1673 70.2611 77.4787 69.2805C80.5778 68.3426 83.7194 67.6604 86.861 66.8077C87.4553 66.6372 88.0921 66.6372 88.262 67.2767C88.4742 68.0441 87.8374 68.2147 87.2855 68.3426C85.9695 68.641 84.6534 68.8542 83.3798 69.2805C79.941 70.3464 76.5447 71.4122 73.1484 72.6059C69.5822 73.8423 66.0586 75.2066 62.4924 76.5283C60.4546 77.2957 58.4168 78.0204 56.4215 78.9158C55.8272 79.1716 55.3177 79.8111 54.9356 80.3653C49.2468 87.8689 45.0439 96.1398 42.157 105.093C41.3928 107.438 40.7985 109.825 40.1617 112.213C40.0343 112.724 40.0343 113.279 39.9069 114.387C41.7325 112.341 43.2608 110.678 44.7467 109.015C45.1712 108.759 45.5958 108.546 45.9778 108.248C48.143 106.415 50.1808 104.453 52.4308 102.748C55.8272 100.105 59.3933 97.6746 62.8745 95.1166C63.5113 94.6476 64.1057 94.0508 65.0821 94.9034C64.7 95.3298 64.4028 95.7561 63.9783 96.0546C61.2188 98.101 58.3744 100.105 55.6149 102.194C52.8554 104.283 50.1383 106.415 47.4637 108.589C46.6571 109.228 46.1477 110.209 45.5109 111.019C45.1288 111.232 44.7042 111.36 44.407 111.616C43.5155 112.511 42.7089 113.534 41.7749 114.387C39.4399 116.604 38.6333 119.333 38.6333 122.445C38.5909 127.007 38.421 131.569 38.3361 136.13C38.3361 136.258 38.3361 136.344 38.3786 136.471C38.4635 136.685 38.506 136.855 38.506 137.068C38.5484 137.665 38.5909 138.262 38.6333 138.902L39.9069 147.471C40.1617 147.471 40.1192 147.471 40.3739 147.514C41.2655 144.657 42.1145 141.801 43.0061 138.944C43.3882 138.433 43.8127 137.964 44.1099 137.452C44.874 136.088 45.4259 134.596 46.3175 133.359C49.6289 128.499 53.0676 123.724 56.464 118.949C56.5913 118.778 56.8885 118.693 57.2281 118.523C57.6951 119.716 57.3555 120.526 56.7187 121.379C54.9781 123.553 53.1526 125.685 51.6242 128.03C50.4355 129.863 49.2468 131.696 48.0156 133.53C46.275 136.088 44.6618 138.774 43.8127 141.843C42.8787 144.444 41.9023 147.002 41.0956 149.645C40.8834 150.327 41.0107 151.18 41.1806 151.905C43.091 159.366 46.1477 166.358 50.1383 172.923C50.6902 173.861 51.2846 174.799 52.0063 175.95C52.1761 175.396 52.261 175.14 52.3459 174.927C52.3035 174.799 52.261 174.629 52.2186 174.501C52.1337 173.137 52.0063 171.005 51.9214 169.641C52.1337 167.893 52.3459 166.145 52.6431 164.397C53.2375 160.645 53.8318 156.85 54.4686 153.099C54.6384 152.118 54.9356 151.137 55.1479 150.114C56.3366 150.285 56.2092 151.01 56.1243 151.606C55.8272 154.633 55.6573 157.66 55.063 160.645C54.2564 164.738 53.3648 168.83 53.5346 173.051C53.662 176.76 54.6384 180.128 57.1857 182.942C57.8649 183.667 58.3744 184.52 59.0961 185.202C59.6056 185.713 60.2848 186.055 60.8792 186.438C60.1999 186.438 60.8367 186.396 60.8367 186.396C60.8792 186.609 61.2188 186.907 61.3462 186.822C62.5349 189.124 64.4029 190.787 66.3557 192.364C66.6954 192.663 66.9925 193.047 67.2897 193.43C68.2237 194.283 69.2001 195.136 70.3464 196.159C70.2615 195.263 70.219 194.752 70.1766 194.198C71.3228 194.027 70.8558 194.07 72.0446 193.899C72.3842 195.306 72.6814 196.713 73.0635 198.29C83.4647 206.092 92.8045 210.398 101.125 213.084C100.404 211.763 99.8094 210.654 98.7905 209.802C97.5594 207.67 96.3707 205.496 95.0546 203.364C91.9555 198.461 88.8139 193.601 85.6723 188.698C85.2477 188.016 84.7807 187.376 84.2288 186.524C85.8845 186.31 86.4364 187.376 86.9883 188.144C89.1959 191.341 91.3611 194.624 93.3989 197.907C96.3282 202.596 99.1726 207.329 102.059 212.019C102.909 213.553 104.267 214.278 105.923 214.662C110.38 215.685 114.753 217.007 119.211 217.902C122.225 218.499 125.324 218.584 128.381 218.883C130.206 219.053 132.032 219.181 133.857 219.352C135.089 219.479 135.216 219.735 134.961 221.057C132.669 221.057 130.376 221.057 128.041 221.014C127.15 220.972 126.216 220.929 125.324 220.886C124.39 220.801 123.414 220.716 122.48 220.588C119.466 220.204 116.494 219.778 113.395 219.394C111.442 221.483 108.81 222.336 105.965 222.762C105.201 222.762 104.394 222.677 103.63 222.72C99.3 222.933 95.0546 222.379 90.8516 221.441C85.6298 220.247 80.4504 218.883 75.3135 217.518C73.7427 217.092 72.2568 216.41 70.7285 215.856C70.0492 215.6 69.5822 215.259 69.9643 214.363C71.0257 213.852 71.7898 214.747 72.6814 214.96C77.3937 216.154 82.0637 217.39 86.8185 218.456C90.2573 219.224 93.6961 219.863 97.1773 220.417C98.9604 220.716 100.786 220.758 102.611 220.929C105.413 221.313 107.833 220.119 110.465 218.925C109.998 218.755 109.574 218.499 109.107 218.371C102.229 216.623 95.4791 214.406 89.1535 211.166C84.3987 208.693 79.8561 205.879 75.1862 203.279C74.2097 202.767 73.2333 202.255 72.2568 201.829C69.4973 200.593 66.6529 199.442 63.8509 198.248C63.2566 197.992 62.6622 197.821 62.0679 197.608C60.4546 196.756 58.8838 195.818 57.2281 195.05C52.9827 193.004 48.6524 191.043 44.407 188.996C40.8834 187.334 37.4022 185.586 33.9209 183.838C33.4115 183.582 33.0719 183.07 32.5199 182.559C33.5813 182.004 34.1757 182.559 34.77 182.814C37.3172 184.051 39.8645 185.287 42.4542 186.481C47.209 188.655 52.0063 190.787 56.7611 193.004C58.6716 193.899 60.5395 194.88 62.4075 195.86C64.7 197.395 67.1624 198.546 69.9643 199.697C66.9925 197.011 64.1906 194.624 61.5584 192.109C57.398 188.186 53.8743 183.71 50.6053 179.02C49.9685 178.125 49.1619 177.357 48.1854 176.846C47.209 176.334 46.3599 175.567 45.3835 175.055C44.6193 174.629 43.7278 174.33 42.9212 173.947C42.5391 173.392 42.1994 172.753 41.7325 172.241C40.9683 171.389 40.1192 170.664 39.355 169.811C36.5106 166.571 33.6662 163.331 30.8642 160.091C29.5906 158.641 28.317 157.234 27.0858 155.785C26.0245 154.548 25.0905 153.227 24.1141 151.947C23.732 151.436 23.5622 150.967 24.6235 150.285C24.8782 150.583 25.0056 151.01 25.2603 151.351C28.8689 155.443 32.4775 159.494 36.0861 163.587C37.8267 165.548 39.4399 167.594 41.223 169.513C42.0721 170.451 43.1334 171.133 44.0674 171.943C45.1712 172.881 46.275 173.861 47.3788 174.799C47.5062 174.671 47.5062 174.714 47.6335 174.586C46.5722 172.54 45.4259 170.536 44.407 168.489C43.091 165.846 41.7749 163.203 40.7136 160.474C39.6098 157.66 38.6758 154.761 37.8691 151.82C37.2748 149.56 36.9776 147.215 36.5531 144.913C36.0436 142.056 34.8125 139.541 33.4539 137.026C33.4115 136.898 33.2417 136.855 33.1143 136.77C32.8596 136.045 32.7322 135.235 32.3926 134.596C30.5246 131.27 28.6566 127.902 26.7038 124.619C23.9867 120.057 21.1848 115.581 18.4252 111.019C18.2554 110.763 18.4677 110.252 18.5102 109.868C18.68 109.825 18.8922 109.783 19.0621 109.74C20.3357 111.744 21.6517 113.705 22.8405 115.709C24.4113 118.352 26.1094 120.953 27.4679 123.724C29.1236 127.007 31.8407 129.65 32.8596 133.274C32.902 133.487 33.3266 133.572 33.4964 133.785C34.3455 134.851 34.6002 136.301 35.3644 138.006C35.3644 133.402 35.3644 129.309 35.3644 125.259C35.4493 125.088 35.4917 124.918 35.5766 124.747C35.9587 121.251 36.2559 117.713 36.7653 114.217C36.9352 113.108 36.7653 112.426 35.9587 111.616C34.9823 110.593 33.836 108.333 33.0294 107.182C33.4964 106.415 34.5577 106.628 35.6191 106.244Z" fill="#8D986F"/>
    <path d="M127.999 221.227C130.291 221.227 132.584 221.227 134.919 221.269C135.768 221.397 136.659 221.568 137.508 221.61C138.357 221.653 139.206 221.525 140.055 221.653C140.607 221.738 141.117 222.122 141.669 222.378C140.395 222.975 139.121 223.529 137.89 224.169C133.73 226.385 129.527 228.645 125.409 230.947C122.31 232.653 119.296 234.443 116.196 236.149C114.201 237.257 112.206 238.28 110.21 239.346C109.743 239.602 109.107 239.815 109.574 240.71C111.144 240.966 112.206 239.73 113.479 239.176C116.409 237.854 119.211 236.362 122.055 234.827C123.965 233.804 125.749 232.567 127.659 231.502C129.145 230.692 130.716 230.095 132.244 229.327C135.513 227.665 138.739 225.917 142.008 224.211C142.433 223.998 142.942 223.87 143.409 223.742C143.749 225.618 143.112 227.238 141.966 228.688C141.669 229.071 141.456 229.498 141.287 229.924C140.565 231.544 139.673 233.079 138.145 234.145C137.678 234.443 137.254 234.87 136.914 235.296C133.857 239.389 129.442 241.265 124.899 242.885C118.404 245.23 111.611 246.125 104.734 246.423C103.205 246.509 101.677 246.85 100.106 246.978C99.5969 247.02 98.6629 247.02 98.6204 246.807C98.4506 246.295 98.4931 245.528 98.7478 245.059C99.5969 243.695 100.616 242.373 101.635 241.094C106.05 235.552 111.272 230.905 117.47 227.366C121.673 224.979 126.173 223.358 130.928 222.378C131.31 222.293 131.692 222.079 132.456 221.781C130.588 221.611 129.272 221.397 127.999 221.227Z" fill="#AEBC8D"/>
    <path d="M173.085 60.4118C173.467 60.6676 173.934 60.8808 174.189 61.2645C177.033 65.0589 179.878 68.8533 182.637 72.6904C185.397 76.5274 188.114 80.4497 190.788 84.3294C192.232 86.4185 193.59 88.5501 195.034 90.6818C195.161 90.895 195.458 90.9803 196.01 90.9803C195.925 90.5113 195.925 89.9571 195.671 89.5734C194.185 86.9727 192.826 84.3294 191.171 81.8993C187.01 75.76 182.765 69.6634 178.477 63.6094C177.373 62.0745 176.057 60.6676 174.826 59.2181C176.184 58.9196 177.458 59.1754 178.732 59.8149C182.51 61.6482 185.567 64.4194 188.326 67.4464C192.741 72.2214 195.968 77.7638 197.708 83.9883C199.152 89.1044 200.086 94.3484 201.19 99.5923C201.275 100.019 201.105 100.53 201.02 101.255C200.256 100.957 199.661 100.786 199.152 100.488C193.081 96.8637 187.689 92.4725 183.699 86.4611C180.005 80.8761 176.736 75.0352 174.147 68.8533C173.213 66.6364 172.915 64.2062 172.363 61.8614C172.194 61.2645 172.066 60.4971 173.085 60.4118Z" fill="#AEBC8D"/>
    <path d="M97.7703 41.9942C98.7468 40.8005 99.7232 39.6494 100.7 38.4556C103.799 34.7038 106.94 30.9521 110.04 27.2003C111.441 25.4949 112.757 23.7469 114.073 21.999C114.752 21.1036 115.261 20.1231 115.856 19.1425C115.474 18.4603 115.049 18.4603 114.582 19.0572C112.799 21.3594 111.016 23.6617 109.19 25.9213C106.855 28.7777 104.521 31.5916 102.143 34.448C99.9779 37.0487 97.7703 39.6494 95.5627 42.2074C95.2656 42.5485 94.7561 42.6764 94.374 42.9322C94.8835 39.5641 95.308 36.196 95.9448 32.8706C96.8363 28.394 99.6808 25.2818 103.247 22.809C105.624 21.1463 108.129 19.6967 110.634 18.2472C115.346 15.5186 120.228 13.1738 125.45 11.6816C126.172 11.4684 126.894 11.0847 127.615 11.7242C128.549 12.4916 128.634 13.5575 127.785 14.9217C127.191 15.9023 126.639 16.8403 126.045 17.8208C124.983 19.6541 124.049 21.5726 122.818 23.278C120.738 26.0918 118.658 28.9909 115.898 31.2079C113.818 32.8706 111.61 34.3201 109.445 35.8976C109.148 36.1108 108.893 36.3666 108.596 36.5371C107.322 37.3898 106.091 38.3277 104.775 39.0525C102.907 40.1183 100.954 41.0563 99.0015 42.0369C98.7043 42.1221 98.1949 41.9942 97.7703 41.9942Z" fill="#AEBC8D"/>
    <path d="M43.642 141.97C44.4487 139.029 46.0195 136.385 47.6752 133.913C48.8639 132.122 50.095 130.331 51.2413 128.498C52.8121 126.025 54.7225 123.808 56.548 121.549C57.1848 120.739 57.5245 119.886 57.0575 118.692C56.7178 118.863 56.4207 118.905 56.2933 119.119C52.897 123.894 49.5007 128.711 46.1468 133.529C45.2553 134.808 44.7034 136.3 43.9392 137.622C43.642 138.176 43.2175 138.645 42.8354 139.114C41.9863 137.281 42.2411 135.362 42.5382 133.529C43.5996 127.262 46.5289 121.89 50.2649 116.859C53.364 112.724 57.3547 109.526 61.3029 106.286C62.4491 105.348 63.5954 104.41 64.7841 103.515C65.2086 103.174 65.6756 102.96 66.3549 102.577C66.4823 103.259 66.6945 103.643 66.6521 104.026C65.9728 109.014 65.6332 114.088 64.4869 118.948C62.8737 125.769 59.0104 131.397 53.7461 136.002C53.2791 136.428 52.6423 136.684 52.1328 137.025C49.9252 138.474 47.6752 139.967 45.51 141.459C44.9581 141.842 44.4487 142.311 43.642 141.97Z" fill="#AEBC8D"/>
    <path d="M222.629 135.704C222.926 136.642 223.223 137.537 223.478 138.517C224.454 142.354 225.303 146.234 226.365 150.029C227.723 155.017 229.209 159.962 230.695 164.908C230.822 165.377 231.247 165.76 231.629 166.272C232.605 165.334 232.351 164.481 232.138 163.714C230.483 157.575 228.869 151.393 227.171 145.296C226.152 141.63 225.006 137.963 223.945 134.297C223.817 133.828 223.817 133.316 223.775 132.805C225.346 132.762 226.704 133.615 227.723 134.553C229.634 136.3 231.502 138.134 232.818 140.436C234.898 144.102 236.002 148.025 236.638 152.118C237.488 157.575 237.148 163.032 236.596 168.489C236.299 171.175 236.087 173.818 235.832 176.504C235.789 177.144 235.832 177.954 235.025 178.039C234.516 178.082 233.752 177.741 233.412 177.357C231.629 175.268 229.803 173.136 228.233 170.877C224.454 165.633 223.011 159.579 222.544 153.269C222.247 149.005 222.289 144.742 222.162 140.479C222.119 139.242 222.119 137.963 222.204 136.727C222.162 136.3 222.459 136.002 222.629 135.704Z" fill="#AEBC8D"/>
    <path d="M33.4529 133.998C33.2406 133.828 32.8586 133.7 32.8161 133.486C31.7972 129.863 29.0802 127.219 27.4245 123.937C26.0659 121.165 24.3678 118.565 22.797 115.921C21.5658 113.918 20.2922 111.914 19.0186 109.953C18.8488 109.995 18.6365 110.038 18.4667 110.081C18.4242 110.464 18.212 110.933 18.3818 111.232C21.0988 115.793 23.9432 120.27 26.6603 124.832C28.6132 128.115 30.4811 131.44 32.3491 134.808C32.7312 135.448 32.8586 136.258 33.0708 136.982C32.9859 136.982 32.901 137.025 32.8586 137.025C26.1933 134.041 20.3347 130.374 17.5751 122.956C14.9005 115.708 13.075 108.333 13.0326 100.573C13.0326 99.3794 12.9477 98.1431 14.1364 97.333C25.514 103.813 34.0897 117.414 33.4529 133.998Z" fill="#AEBC8D"/>
    <path d="M101.934 212.232C99.0467 207.542 96.2023 202.767 93.273 198.12C91.1927 194.837 89.07 191.554 86.8624 188.357C86.3105 187.589 85.7586 186.481 84.1029 186.737C84.6548 187.589 85.1218 188.271 85.5463 188.911C88.6879 193.814 91.8295 198.674 94.9287 203.577C96.2447 205.666 97.4334 207.84 98.6646 210.015C98.1127 210.1 97.5183 210.313 97.0089 210.185C93.655 209.631 90.4285 208.736 88.136 205.879C86.82 204.216 85.1643 202.809 83.9755 201.061C81.4708 197.48 80.1547 193.302 79.0509 189.081C78.2867 186.182 77.6924 183.283 77.0556 180.384C76.9282 179.872 76.9707 179.276 76.8857 178.338C77.7348 178.636 78.4141 178.807 78.966 179.105C82.3623 181.024 85.7586 182.942 89.1125 184.946C95.8626 189.039 100.235 195.05 102.231 202.596C102.952 205.24 102.443 208.267 102.485 211.08C102.443 211.464 102.103 211.848 101.934 212.232Z" fill="#AEBC8D"/>
    <path d="M62.3642 195.988C60.4963 195.05 58.6283 194.026 56.7179 193.131C51.963 190.914 47.1657 188.825 42.4109 186.608C39.8212 185.414 37.3164 184.135 34.7267 182.942C34.1324 182.643 33.538 182.089 32.4767 182.686C33.0286 183.197 33.3682 183.709 33.8776 183.965C37.3589 185.713 40.8401 187.461 44.3638 189.124C48.6092 191.17 52.9395 193.131 57.1848 195.178C58.8405 195.945 60.4114 196.883 62.0246 197.736C60.7934 197.864 59.5198 198.162 58.3311 198.034C55.0197 197.693 51.7507 197.224 48.4818 196.627C43.0901 195.647 38.2504 193.259 34.0475 189.806C30.6511 187.035 27.552 183.88 24.2831 180.938C23.0944 179.829 21.8207 178.806 20.632 177.698C19.9103 177.016 19.9103 176.973 20.0801 175.438C21.2264 175.438 22.4575 175.31 23.6038 175.481C27.2973 176.035 31.0332 176.461 34.6843 177.357C41.859 179.105 48.3969 182.217 53.9584 187.205C56.5905 189.593 59.2651 191.895 61.8972 194.24C62.3642 194.709 63.1708 195.135 62.3642 195.988Z" fill="#AEBC8D"/>
    <path d="M218.341 96.3096C218.808 96.608 219.317 96.8212 219.742 97.2049C224.369 101.511 228.36 106.371 231.714 111.743C233.2 114.131 234.643 116.561 236.129 118.948C236.426 119.46 236.893 119.843 237.275 120.27C237.445 120.185 237.572 120.142 237.742 120.057C237.7 119.545 237.785 118.991 237.572 118.564C236.808 116.902 236.171 115.111 235.152 113.619C232.053 109.057 228.827 104.581 225.515 100.189C224.454 98.7824 223.011 97.6739 221.822 96.3522C221.355 95.8406 221.1 95.2011 220.761 94.6042C224.624 95.4996 228.02 97.3328 231.119 99.7629C234.473 102.406 237.318 105.561 239.61 109.185C242.582 113.832 244.238 118.906 245.426 124.192C245.639 125.087 245.851 125.983 245.978 126.921C246.021 127.304 246.021 127.859 245.808 128.029C245.554 128.2 245.002 128.114 244.662 127.944C240.671 125.812 236.638 123.681 232.733 121.421C230.907 120.355 229.209 118.991 227.681 117.584C222.926 113.193 220.336 107.565 219.062 101.255C218.808 99.6777 217.874 98.1002 218.341 96.3096Z" fill="#AEBC8D"/>
    <path d="M35.6189 106.244C27.9772 113.832 20.8874 100.786 21.0996 93.3681C21.3544 89.5311 19.5288 84.074 23.3922 81.9849C28.8263 79.0858 33.4537 85.4382 37.0623 89.2753C42.0294 94.2634 40.7134 101.938 35.6189 106.244ZM21.9063 86.163C21.8638 91.7481 24.7082 91.6628 24.5384 86.0351C24.5384 85.353 23.9865 84.8414 23.3072 84.8414H23.2648C22.5006 84.8414 21.9063 85.4383 21.9063 86.163Z" fill="#454B4E"/>
    <path d="M113.437 44.2112C114.116 44.3817 114.795 44.5096 115.474 44.7228C120.739 46.215 125.026 49.3273 129.314 52.5674C133.347 55.5944 137.593 58.2804 142.475 59.6446C143.282 59.8578 144.046 60.2841 144.895 59.6446C144.98 58.6641 144.173 58.5362 143.579 58.323C142.05 57.7687 140.48 57.3424 138.994 56.7455C135.81 55.5092 133.135 53.4627 130.461 51.4163C128.465 49.8815 126.343 48.4746 124.305 47.025C122.691 45.8739 120.993 44.936 118.998 44.5096C118.531 44.4244 118.149 44.0407 117.767 43.7849C118.786 43.6143 119.847 43.3585 120.866 43.3159C122.691 43.2306 124.432 43.3585 126.173 44.1259C128.465 45.1491 131.012 45.5755 133.305 46.6413C137.381 48.5598 141.032 51.1179 144.003 54.5712C146.338 57.2571 148.631 59.9431 150.923 62.6716C151.348 63.1832 151.603 63.8654 151.985 64.5049C150.754 65.4002 149.522 65.0165 148.376 65.0165C147.315 64.9739 146.253 64.7607 145.235 64.7607C137.168 65.0165 130.461 61.7337 124.262 56.9161C120.739 54.1875 118.234 50.5636 115.389 47.1956C114.88 46.5987 114.328 46.0871 113.861 45.4902C113.649 45.1065 113.606 44.6375 113.437 44.2112Z" fill="#AEBC8D"/>
    <path d="M62.4072 76.7411C65.9734 75.4195 69.497 74.0552 73.0632 72.8188C76.4595 71.6251 79.8982 70.5592 83.2946 69.4934C84.5682 69.1097 85.8842 68.8539 87.2003 68.5555C87.7947 68.4276 88.4315 68.257 88.1768 67.4896C87.9645 66.8075 87.3701 66.8501 86.7758 67.0206C83.6342 67.8307 80.4926 68.5555 77.3935 69.4934C74.0821 70.5166 70.8556 71.753 67.5866 72.8615C66.3979 73.2878 65.2092 73.6715 64.0205 74.0552C64.445 73.501 64.7422 72.8188 65.2941 72.3925C67.5442 70.6019 69.7518 68.6834 72.1716 67.1485C77.3086 63.9084 82.9974 62.2456 89.0258 62.203C91.8278 62.1604 94.6298 62.7146 97.4317 62.9704C98.8327 63.3968 100.191 63.8231 101.592 64.2494C101.083 66.0827 99.6393 67.1912 98.2383 68.2144C92.2099 72.7762 85.5446 76.1869 78.3274 78.4891C75.1434 79.5123 71.9169 79.2992 68.6904 78.6597C67.247 78.3612 65.7611 78.1054 64.3601 77.7217C63.6384 77.5938 62.7044 77.6791 62.4072 76.7411Z" fill="#AEBC8D"/>
    <path d="M209.298 97.5889C208.959 99.9764 208.874 102.406 208.279 104.709C207.558 107.437 206.539 110.081 205.435 112.681C204.246 115.538 202.76 118.309 201.487 121.165C200.765 122.785 200.256 124.491 199.661 126.154C199.534 126.495 199.704 126.921 199.704 127.646C200.765 126.836 200.977 125.855 201.402 125.002C202.463 122.913 203.525 120.824 204.544 118.735C206.836 114.003 208.959 109.228 210.063 104.069C210.232 103.259 210.105 102.364 210.19 101.511C210.275 100.914 210.487 100.36 210.657 99.7632C210.954 100.829 211.336 101.895 211.464 102.961C211.888 106.798 211.039 110.464 209.638 114.003C206.751 121.379 203.312 128.456 198.43 134.723C197.284 136.215 195.84 137.537 195.246 139.413C195.161 139.626 194.864 139.796 194.439 140.137C194.142 139.541 193.718 139.072 193.718 138.603C193.505 133.359 192.954 128.072 193.845 122.871C195.161 115.452 198.345 108.844 203.27 103.131C204.798 101.383 206.496 99.7632 208.152 98.1431C208.449 97.8447 208.916 97.7594 209.298 97.5889Z" fill="#AEBC8D"/>
    <path d="M43.9824 172.07C43.006 171.26 41.9871 170.535 41.138 169.64C39.3549 167.722 37.7417 165.675 36.0011 163.714C32.3925 159.621 28.7839 155.571 25.1753 151.478C24.9206 151.18 24.7932 150.711 24.5385 150.412C23.4772 151.052 23.647 151.563 24.0291 152.075C25.0055 153.354 25.9819 154.676 27.0008 155.912C28.232 157.362 29.5056 158.768 30.7792 160.218C33.6236 163.458 36.4256 166.741 39.27 169.938C40.0342 170.791 40.8833 171.516 41.6474 172.369C42.1144 172.88 42.4116 173.52 42.8361 174.074C38.8879 173.093 35.2369 171.388 31.9679 168.958C24.7932 163.714 20.1233 156.637 17.0242 148.451C16.5572 147.172 16.0902 145.893 15.7505 144.614C15.6232 144.06 15.5383 143.037 15.8354 142.866C16.3449 142.568 17.194 142.61 17.7883 142.823C23.6045 145.083 28.7414 148.366 33.1142 152.885C38.2936 158.214 41.4352 164.652 44.0673 171.431C44.1522 171.644 44.0249 171.857 43.9824 172.07Z" fill="#AEBC8D"/>
    <path d="M47.5064 82.1982C48.0159 74.7372 49.247 67.4469 52.6858 60.7107C53.3651 59.3891 53.3226 59.3891 53.2377 57.9395C52.8556 58.1953 52.3886 58.3232 52.2613 58.6217C51.2424 60.6254 50.0961 62.6292 49.2895 64.7183C47.8036 68.4701 46.9545 72.3924 46.5724 76.4426C46.2753 79.8107 45.596 83.0935 45.0865 86.4615C44.7894 86.2484 44.3648 86.1205 44.2799 85.8647C43.1337 83.3493 41.945 80.8765 41.9025 77.9774C41.7751 67.5321 45.596 58.579 52.2613 50.7344C53.1103 49.7112 54.0019 48.688 54.8934 47.6648C55.4029 47.1105 55.9972 46.6416 56.6765 46.0447C57.0586 46.5563 57.3982 46.8121 57.5255 47.1532C59.0114 51.4165 58.9265 55.8505 58.4171 60.2417C57.7803 65.7415 55.4453 70.5591 52.4311 75.1209C51.0301 77.2526 49.714 79.427 48.313 81.6013C48.1432 81.8571 47.7611 82.0276 47.5064 82.1982Z" fill="#AEBC8D"/>
    <path d="M214.392 131.155C214.222 131.539 214.053 131.923 213.84 132.264C211.887 134.779 209.935 137.294 207.939 139.767C205.817 142.325 203.651 144.841 201.444 147.313C199.576 149.445 197.581 151.491 195.67 153.581C195.5 153.751 195.415 154.049 195.203 154.476C196.222 154.561 196.816 154.092 197.368 153.538C198.217 152.685 199.194 151.918 199.915 150.98C203.694 146.12 208.406 142.069 211.675 136.783C212.439 135.589 213.713 134.694 214.774 133.671C215.284 135.845 214.732 137.806 213.968 139.81C211.463 146.461 206.878 151.406 201.232 155.414C197.835 157.844 194.142 159.805 190.533 161.937C190.151 162.15 189.642 162.193 188.92 162.363C188.962 161.681 188.962 161.212 189.047 160.786C190.576 151.875 195.118 144.5 200.934 137.806C203.142 135.248 206.029 133.543 209.255 132.434C210.189 132.093 211.081 131.709 212.015 131.326C212.779 131.027 213.543 130.601 214.392 131.155Z" fill="#AEBC8D"/>
    <path d="M123.613 36.2323C110.877 21.0121 150.784 14.9154 146.156 25.1476C141.232 31.4574 132.189 42.9685 123.613 36.2323ZM141.826 23.8259C141.402 20.671 137.199 20.9694 137.835 24.2096C139.152 24.0817 140.553 24.7638 141.826 23.8259Z" fill="#454B4E"/>
    <path d="M102.569 221.141C100.743 220.971 98.9179 220.928 97.1348 220.63C93.6536 220.076 90.2148 219.436 86.7761 218.669C82.0637 217.603 77.3513 216.366 72.6389 215.173C71.7474 214.959 70.9408 214.064 69.9219 214.576C69.5398 215.471 70.0068 215.812 70.686 216.068C72.2144 216.622 73.7003 217.304 75.2711 217.731C80.4505 219.095 85.6298 220.502 90.8092 221.653C95.0121 222.591 99.2575 223.145 103.588 222.932C104.352 222.889 105.159 222.975 105.923 222.975C105.88 223.017 105.795 223.103 105.753 223.103C103.078 223.06 100.786 224.424 98.3236 225.021C90.7668 226.897 83.3798 225.959 76.4173 222.548C72.6814 220.715 69.1153 218.455 65.4642 216.452C64.1057 215.684 62.7047 215.002 61.3462 214.235C60.8792 213.979 60.4122 213.68 59.7754 213.297C60.1575 212.87 60.3697 212.444 60.7094 212.359C64.2755 211.463 67.8416 210.696 71.5776 211.208C74.3795 211.634 77.2239 211.634 79.9835 212.231C86.6063 213.68 93.1442 215.556 99.1726 218.754C100.361 219.393 101.423 220.331 102.569 221.141Z" fill="#AEBC8D"/>
    <path d="M154.362 218.669C189.132 208.267 146.636 252.734 143.621 236.448C142.305 229.498 145.15 221.398 154.362 218.669ZM155.381 232.483C153.131 231.971 148.673 234.913 149.225 237.087C151.433 237.172 154.405 234.529 155.381 232.483Z" fill="#454B4E"/>
    <path d="M100.785 63.6524C76.2887 61.0517 98.8318 38.8821 116.747 54.8698C121.205 58.6216 111.398 63.695 108.044 63.8229C105.922 64.0787 102.95 63.9082 100.785 63.6524ZM104.69 52.6529C104.606 52.9513 104.605 53.2497 104.775 53.5055C106.516 54.4861 108.172 55.7651 110.379 55.1683C110.592 52.8234 110.507 52.4397 107.068 51.4165C106.049 51.118 104.988 51.6723 104.69 52.6529Z" fill="#454B4E"/>
    <path d="M207.982 182.26C207.727 185.372 207.345 188.442 207.26 191.554C207.175 194.325 207.43 197.054 207.515 199.825C207.557 201.743 207.557 203.662 207.6 205.58C207.642 206.433 207.302 207.542 208.576 207.84C209.383 208.011 209.722 207.328 209.722 205.538C209.722 201.488 209.637 197.437 209.765 193.387C209.892 189.422 210.317 185.5 210.529 181.535C210.614 180.341 210.444 179.147 210.317 177.954C210.274 177.357 210.529 177.186 211.038 177.186C211.718 178.295 212.609 179.361 213.076 180.597C215.793 187.674 215.878 194.794 213.798 202.127C212.227 207.584 211.336 213.169 210.104 218.712C209.892 219.65 210.062 220.971 208.916 221.227C207.642 221.483 207.387 220.119 206.963 219.309C206.156 217.987 205.647 216.495 204.925 215.088C204.713 214.661 204.203 214.363 203.864 213.979C203.906 213.254 204.034 212.487 203.949 211.762C203.651 208.607 203.142 205.495 203.057 202.34C202.972 199.526 203.269 196.713 203.354 193.899C203.482 193.43 203.651 192.961 203.779 192.492C204.628 189.55 205.477 186.566 206.241 183.581C206.496 182.601 207.005 182.132 207.982 182.26Z" fill="#AEBC8D"/>
    <path d="M67.2045 193.6C64.912 191.341 62.3648 189.593 61.4732 186.48C60.8789 184.349 60.5817 181.705 60.794 179.361C60.794 173.776 66.4828 164.012 72.1292 170.919C76.2048 175.694 78.285 198.674 67.2045 193.6ZM64.9969 180.64C65.9734 178.593 66.9073 176.589 66.6102 174.202C64.3601 174.244 64.1054 174.415 63.7233 176.291C63.6384 178.337 62.2799 179.616 64.9969 180.64Z" fill="#454B4E"/>
    <path d="M53.4502 173.221C53.2804 169.001 54.172 164.951 54.9786 160.815C55.5729 157.831 55.7427 154.804 56.0399 151.777C56.0824 151.222 56.2522 150.455 55.0635 150.284C54.8512 151.265 54.554 152.246 54.3842 153.269C53.7474 157.021 53.1106 160.772 52.5587 164.567C52.2615 166.528 52.0068 168.489 51.7521 170.45C50.3936 170.237 50.2662 169.086 49.969 168.063C48.8652 163.885 48.7379 159.621 49.7992 155.401C50.7332 151.606 51.9219 147.854 53.1106 144.145C54.0446 141.289 55.8277 139.072 58.4598 137.58C58.6721 137.835 58.8843 137.963 58.9268 138.134C60.5825 144.23 62.4505 150.242 61.9835 156.722C61.5589 163.075 58.9692 168.319 54.7239 172.88C54.4691 173.136 53.8748 173.094 53.4502 173.221Z" fill="#AEBC8D"/>
    <path d="M203.356 193.856C208.493 196.969 208.238 223.743 195.12 218.669C185.61 215.045 191.638 186.779 203.356 193.856ZM201.955 209.801C199.917 209.204 197.242 214.662 199.917 214.107C202.167 213.681 202.889 211.123 201.955 209.801Z" fill="#454B4E"/>
    <path d="M206.241 75.8881C209.765 65.187 231.119 72.0084 232.265 80.0662C233.709 89.872 207.77 86.0349 206.241 75.8881ZM221.27 75.547C221.355 77.8919 230.525 78.9151 227.213 76.2292C225.218 74.5664 221.185 72.8611 221.27 75.547Z" fill="#454B4E"/>
    <path d="M167.99 44.254C169.094 43.3161 170.452 43.7424 171.641 43.8703C174.995 44.1687 178.349 44.6377 181.66 45.0641C183.104 45.2346 184.547 45.5757 186.033 45.7462C187.179 45.8741 188.368 45.8741 189.429 45.9167C189.896 44.6804 189.132 44.4672 188.58 44.3393C185.736 43.8277 182.934 43.2308 180.047 42.9324C176.693 42.5913 173.254 42.8897 169.943 42.3355C167.099 41.8665 164.339 42.7192 161.537 42.3781C165.655 39.2232 170.495 38.3705 175.504 38.1574C182.764 37.8589 189.472 39.8627 196.052 42.6339C197.878 43.4013 199.746 44.1261 201.571 44.8935C201.953 45.0641 202.25 45.2772 202.802 45.6183C202.25 46.0446 201.953 46.3857 201.529 46.5989C197.58 48.4748 193.462 49.7964 189.09 49.6685C186.16 49.5832 183.231 48.9437 180.302 48.4321C176.269 47.75 172.405 46.3431 168.669 44.723C168.415 44.6377 168.202 44.4246 167.99 44.254Z" fill="#AEBC8D"/>
    <path d="M45.3848 111.232C46.0216 110.422 46.5735 109.441 47.3377 108.802C50.0123 106.585 52.7294 104.496 55.4889 102.407C58.2484 100.318 61.0928 98.3137 63.8523 96.2673C64.2768 95.9689 64.574 95.4999 64.9561 95.1162C63.9796 94.3061 63.3428 94.903 62.7485 95.3294C59.2673 97.8448 55.7436 100.318 52.3048 102.961C50.0548 104.666 48.017 106.627 45.8518 108.461C45.4697 108.759 45.0452 108.972 44.6207 109.228C44.281 107.395 45.3848 106.116 46.2339 104.751C48.9085 100.488 52.6444 97.4184 56.9323 94.903C59.522 93.4108 62.0268 91.8334 64.7014 90.5117C66.8665 89.4885 69.159 88.7211 71.4515 88.039C73.0223 87.57 74.678 87.57 76.2488 88.4227C75.9517 89.6164 75.145 90.4265 74.4233 91.2791C71.1119 95.0309 67.2486 98.1432 63.2579 101.085C61.8145 102.108 60.4135 103.174 59.055 104.325C55.9559 106.883 52.3473 108.546 48.6538 110.038C47.5924 110.422 46.4886 110.805 45.3848 111.232Z" fill="#AEBC8D"/>
    <path d="M209.299 158.385C217.79 166.059 195.714 176.675 188.752 171.217C180.176 164.481 204.545 154.079 209.299 158.385ZM194.483 168.446C193.973 169.896 195.757 170.237 198.346 169.853C202.677 168.063 195.29 166.101 194.483 168.446Z" fill="#454B4E"/>
    <path d="M168.881 205.368C167.098 205.666 165.358 206.007 163.575 206.22C160.73 206.561 157.843 206.774 154.999 207.158C154.235 207.243 153.513 207.712 152.579 208.096C153.513 209.205 154.49 208.778 155.296 208.736C156.273 208.693 157.249 208.48 158.225 208.437C160.688 208.309 163.15 208.181 165.57 208.096C165.4 209.162 164.551 209.588 163.702 209.929C159.075 211.891 154.405 213.297 149.268 212.36C145.235 211.592 141.201 210.953 136.956 210.228C137.296 209.716 137.338 209.375 137.55 209.29C141.159 207.158 144.683 204.899 148.376 202.98C152.919 200.635 157.801 200.635 162.683 201.786C164.254 202.17 165.782 202.852 167.353 203.278C168.542 203.534 169.009 204.174 168.881 205.368Z" fill="#AEBC8D"/>
    <path d="M183.782 210.526C183.655 211.123 183.612 211.762 183.4 212.359C182.594 214.32 181.575 216.196 180.895 218.2C179.452 222.548 178.136 226.982 176.82 231.374C176.65 232.013 176.65 232.653 176.565 233.335C176.692 233.377 176.82 233.463 176.947 233.505C177.244 233.25 177.626 233.079 177.796 232.781C178.178 232.013 178.518 231.246 178.773 230.436C180.641 225.021 182.424 219.564 184.334 214.15C185.056 212.146 185.99 210.227 186.881 208.309C186.966 208.138 187.348 208.053 187.603 207.925C189.089 209.886 188.622 212.146 188.367 214.277C187.348 221.781 184.631 228.688 180.768 235.168C179.537 237.257 178.433 239.389 177.287 241.521C177.159 241.776 177.075 242.075 176.905 242.288C176.692 242.501 176.268 242.842 176.056 242.757C175.716 242.629 175.291 242.245 175.249 241.947C175.079 240.881 175.079 239.815 174.994 238.749C174.74 235.424 174.442 232.098 174.315 228.773C174.23 226.3 174.994 223.955 176.098 221.824C177.754 218.456 179.579 215.173 181.447 211.89C181.914 211.123 182.509 210.142 183.782 210.526Z" fill="#AEBC8D"/>
    <path d="M200.806 176.334C195.626 178.849 190.404 181.365 185.225 183.923C184.334 184.349 183.484 184.861 182.678 185.458C182.211 185.799 181.914 186.353 181.532 186.779C182.211 187.674 182.805 187.461 183.4 187.206C188.282 184.861 193.206 182.516 198.089 180.171C198.428 180 198.853 180 199.277 179.915C198.513 182.388 196.603 183.88 194.735 185.372C191.933 187.632 188.621 188.911 185.225 189.891C181.319 191.043 177.329 191.938 173.338 192.876C172.913 192.961 172.404 192.748 171.979 192.705C172.064 192.194 171.979 191.554 172.234 191.128C176.098 185.116 180.852 180.128 187.645 177.314C191.423 175.78 195.244 175.268 199.235 175.439C199.999 175.481 200.381 175.822 200.806 176.334Z" fill="#AEBC8D"/>
    <path d="M74.8883 54.1023C75.0581 53.2923 75.0157 52.397 75.3553 51.6722C77.011 48.2615 77.6903 44.595 78.6243 40.9711C78.8365 40.0758 79.1337 39.2231 79.346 38.3278C79.4733 37.7736 79.6007 37.1767 78.6667 36.9635C78.5394 37.1341 78.2846 37.3046 78.2422 37.5604C76.6289 43.0602 75.0581 48.5173 73.4024 54.0171C73.2326 54.5287 72.6807 54.9124 72.2562 55.3387C72.0439 54.3155 71.7043 53.3349 71.5769 52.3117C71.025 48.3041 70.3033 44.2966 72.2137 40.4169C72.8081 39.2231 73.3175 37.9441 73.9968 36.793C76.0346 33.297 78.1573 29.8437 80.28 26.433C80.5347 26.0493 81.0441 25.495 81.2989 25.5803C81.7234 25.7082 82.3178 26.1772 82.4027 26.6035C82.7848 28.3941 83.2942 30.2274 83.2942 32.018C83.3367 38.3278 81.4262 44.1687 78.3695 49.6258C77.7327 50.7343 77.1384 51.8854 76.4167 52.9086C76.077 53.3776 75.3978 53.7186 74.8883 54.1023Z" fill="#AEBC8D"/>
    <path d="M197.58 61.9044C200.467 61.9897 203.354 62.2029 206.198 62.1176C208.661 62.0323 211.081 61.5634 213.501 61.1797C213.968 61.0944 214.392 60.6681 214.944 60.327C213.925 59.1332 212.821 59.6022 211.845 59.6449C208.916 59.858 205.944 60.2417 203.014 60.3696C201.571 60.4549 200.085 60.1565 198.599 59.9859C196.307 59.6875 194.014 59.3464 191.722 59.048C192.274 58.6643 192.741 58.11 193.335 57.8969C196.689 56.6605 200.17 56.1915 203.736 56.021C210.019 55.7225 216.133 56.7457 222.204 58.1527C223.52 58.4511 224.836 58.7069 226.109 59.0053C226.534 59.7301 226.194 60.1565 225.642 60.4549C224.072 61.2649 222.543 62.2029 220.888 62.7998C217.321 64.1214 213.755 65.5283 209.849 65.6136C205.944 65.6562 202.293 64.7183 198.769 63.0982C198.302 62.7998 198.005 62.2881 197.58 61.9044Z" fill="#AEBC8D"/>
    <path d="M162.981 44.5947C162.429 44.2963 162.514 43.8273 163.023 43.8273C164.382 43.7847 165.74 43.9126 167.099 43.9978C166.122 44.0405 165.146 44.0405 164.212 44.1684C163.787 44.1684 163.405 44.4242 162.981 44.5947Z" fill="#8D986F"/>
    <path d="M122.437 220.801C123.158 220.886 123.838 220.929 124.559 221.014C123.838 220.971 123.158 220.886 122.437 220.801Z" fill="#AEBC8D"/>
    <path d="M198.218 189.123C198.43 188.953 198.685 188.74 198.897 188.569C198.897 188.825 198.939 189.038 198.939 189.294C198.727 189.209 198.472 189.166 198.218 189.123Z" fill="#AEBC8D"/>
    <path d="M140.479 219.863C140.692 219.991 140.946 220.119 141.159 220.246C140.946 220.119 140.734 219.991 140.479 219.863Z" fill="#AEBC8D"/>
    <path d="M198.94 189.848C198.855 190.061 198.812 190.232 198.728 190.445C198.812 190.232 198.897 190.019 198.94 189.848Z" fill="#AEBC8D"/>
    <path d="M52.0913 174.628C52.1337 174.756 52.1762 174.927 52.2187 175.055C52.1762 174.969 52.0913 174.884 52.0488 174.799C52.0064 174.756 52.0488 174.671 52.0913 174.628Z" fill="#AEBC8D"/>
    <path d="M217.235 131.27C217.15 131.483 217.065 131.654 216.98 131.867C217.108 131.654 217.193 131.441 217.235 131.27Z" fill="#AEBC8D"/>
    <path d="M74.4229 54.5289C74.5502 54.401 74.72 54.2304 74.8474 54.1025C74.72 54.2731 74.5502 54.401 74.4229 54.5289Z" fill="#AEBC8D"/>
    <path d="M220.804 94.6466C220.634 94.6466 220.507 94.6466 220.337 94.6466C220.507 94.6045 220.677 94.6045 220.804 94.6466Z" fill="#AEBC8D"/>
    <path d="M72.3412 56.1489C72.3412 56.2768 72.3837 56.3621 72.3837 56.49C72.3837 56.5326 72.2563 56.5326 72.2139 56.5753C72.2563 56.4474 72.2988 56.2768 72.3412 56.1489Z" fill="#AEBC8D"/>
    <path d="M180.938 117.286H147.484V84.5427C147.484 83.5195 146.678 82.7095 145.659 82.7095H111.314C110.295 82.7095 109.488 83.5195 109.488 84.5427V117.286H77.3929C76.374 117.286 75.5674 118.096 75.5674 119.119V153.61C75.5674 154.633 76.374 155.443 77.3929 155.443H109.488V188.186C109.488 189.209 110.295 190.019 111.314 190.019H145.659C146.678 190.019 147.484 189.209 147.484 188.186V155.443H180.938C181.957 155.443 182.764 154.633 182.764 153.61V119.119C182.764 118.096 181.957 117.286 180.938 117.286Z" fill="#E43217"/>
    <path d="M155.551 123.979C154.659 121.634 150.584 120.313 148.249 122.828C147.697 123.425 147.145 124.022 146.55 124.661C145.999 124.022 145.447 123.382 144.895 122.743C142.645 120.142 138.527 121.293 137.55 123.595C136.871 125.216 137.083 126.878 137.975 127.987C140.564 131.142 143.494 134.041 146.296 137.068C149.225 134.169 152.239 131.355 154.956 128.328C155.89 127.305 156.187 125.685 155.551 123.979Z" fill="white"/>
</svg>
