<svg xmlns="http://www.w3.org/2000/svg" style="shape-rendering:geometricPrecision;text-rendering:geometricPrecision;image-rendering:optimizeQuality;fill-rule:evenodd;clip-rule:evenodd" viewBox="0 0 1113 1113"><path fill="#abbb89" d="M421.5 149.5c1.096-2.886 3.096-4.886 6-6 .667 0 1-.333 1-1 25.757-29.923 50.591-60.5902 74.5-92 .611-3.5876-.889-4.7542-4.5-3.5-20.454 26.1226-41.287 51.956-62.5 77.5-8.033 8.864-16.2 17.531-24.5 26-.838.342-1.172 1.008-1 2-.667 0-1 .333-1 1-.667 1.333-1.667 2.333-3 3 1.302-16.267 3.802-32.601 7.5-49 4.467-16.4627 13.634-29.6294 27.5-39.5 32.276-23.4712 67.609-41.1379 106-53 7.659-1.9486 11.159.8847 10.5 8.5-16.667 39.4873-42.501 71.654-77.5 96.5-17.46 13.068-36.46 23.568-57 31.5-1.213-.247-1.88-.914-2-2Z" style="opacity:.999"/><path fill="#87956a" d="M428.5 142.5c-.667 0-1 .333-1 1-2.904 1.114-4.904 3.114-6 6-5.77 6.271-11.77 12.438-18 18.5 32.124-11.952 65.124-21.285 99-28 7.39-11.005 17.056-19.172 29-24.5 3.09 1.165 4.424 3.498 4 7-7.347 3.358-13.68 8.192-19 14.5 4.326-.093 8.659-.093 13 0 4.171 3.191 6.004 7.358 5.5 12.5-9.377 2.413-18.877 4.413-28.5 6 2.471 1.571 5.137 2.571 8 3-.086.996.248 1.829 1 2.5 7.515 1.837 14.515 4.837 21 9 18.159 12.913 36.493 25.58 55 38 13.298 6.71 26.965 12.543 41 17.5 1.021.502 1.188 1.168.5 2-1.154 1.243-2.488 2.243-4 3-15.428-4.628-30.262-10.794-44.5-18.5-17.667-12.333-35.333-24.667-53-37-12.23-7.24-25.23-12.407-39-15.5-2.047-.011-4.047-.344-6-1-41.798 9.237-81.465 24.07-119 44.5 8.026 3.641 16.359 4.475 25 2.5 2.924 3.378 2.59 6.378-1 9-11.809 3.251-22.476.917-32-7-43.371 25.187-81.537 56.853-114.5 95-.688.832-.521 1.498.5 2 8.541-3.442 16.874-7.109 25-11 27.683-10.172 55.683-19.672 84-28.5 8.216-2.682 16.549-3.849 25-3.5 2.773 2.791 2.107 4.625-2 5.5-8.813 1.37-17.479 3.37-26 6-29.181 9.113-57.848 19.28-86 30.5-10.094 3.532-20.094 7.365-30 11.5-36.143 46.795-59.977 99.295-71.5 157.5 6.633-8.467 13.8-16.467 21.5-24 27.465-24.424 56.799-46.757 88-67 2.813 1.117 3.48 2.95 2 5.5-29.806 20.468-58.473 42.468-86 66-.805 1.113-1.472 2.279-2 3.5-10.237 9.145-19.07 19.479-26.5 31-6.56 44.333-4.894 88.333 5 132 3.874-12.789 8.041-25.456 12.5-38 2.125-2.588 3.458-5.588 4-9 .667 0 1-.333 1-1 6.321-11.308 13.155-22.308 20.5-33 12.081-15.582 23.581-31.582 34.5-48 2.563-1.311 4.23-.478 5 2.5-3.784 7.067-7.95 13.9-12.5 20.5-12.49 16.314-24.49 32.98-36 50-5.054 8.774-9.554 17.774-13.5 27-4.656 12.135-8.823 24.469-12.5 37-.312 4.769.355 9.435 2 14 10.996 37.32 27.33 71.986 49 104-1.375-9.224-2.209-18.557-2.5-28 2.191-17.791 5.357-35.458 9.5-53 1.531-11.643 2.864-23.31 4-35 1.241-1.921 2.741-2.254 4.5-1 .84 7.97.673 15.97-.5 24-3.01 20.044-6.344 40.044-10 60-.499 5.323-.666 10.656-.5 16 .79 12.159 3.623 23.825 8.5 35 8.991 11.487 18.491 22.487 28.5 33 0 .667.333 1 1 1 0 .667.333 1 1 1 0 .667.333 1 1 1 4 4.667 8.333 9 13 13 0 .667.333 1 1 1 1.667 1.333 3.333 2.667 5 4 0 .667.333 1 1 1 0 .667.333 1 1 1 0 .667.333 1 1 1 4.306 4.135 8.806 8.135 13.5 12-.255-2.582-.422-5.248-.5-8 2.029-3.203 4.362-3.536 7-1 3 5.978 5 12.311 6 19 37.547 28.608 78.88 50.108 124 64.5-3.648-4.47-6.648-9.304-9-14.5-12.241-18.137-23.741-36.803-34.5-56-10.109-15.773-20.609-31.273-31.5-46.5l3-1.5c4.861 4.061 9.027 8.727 12.5 14 7.085 11.172 14.419 22.172 22 33 11.424 20.528 23.591 40.528 36.5 60 0 .667.333 1 1 1 .25 2.174 1.25 3.841 3 5 2.202 3.226 4.535 6.393 7 9.5 45.872 14.479 92.872 22.812 141 25 3.582 2.67 3.582 5.003 0 7-32.696 1.164-65.029-1.669-97-8.5-1.084 2.588-2.751 4.755-5 6.5-14.567 8.392-30.234 11.892-47 10.5-48.153-4.871-94.82-16.038-140-33.5-2-4.333-.667-6 4-5 45.458 15.525 92.125 25.358 140 29.5 6.065.239 12.065-.261 18-1.5 7.272-2.535 14.605-4.868 22-7-59.74-13.902-114.74-38.235-165-73-17.721-6.294-35.054-13.461-52-21.5-.325-1.632-1.325-2.632-3-3-39.662-18.497-79.328-36.997-119-55.5-2.667-1.667-5.333-3.333-8-5-2.99-3.379-2.324-5.045 2-5 27.489 14.078 55.489 27.078 84 39 13.899 7.117 27.899 13.95 42 20.5 10.933 7.134 22.6 12.634 35 16.5-35.917-27.246-66.25-59.579-91-97-8.993-4.172-17.327-9.338-25-15.5-6.938-6.437-13.771-13.103-20.5-20-11.927-14.598-24.594-28.598-38-42-11.453-12.615-21.953-25.949-31.5-40 1.4378-3.323 3.2711-3.656 5.5-1 6.945 10.213 14.611 19.879 23 29 19.067 20.229 37.9 40.563 56.5 61 0 .667.333 1 1 1 0 .667.333 1 1 1 .79.901 1.79 1.568 3 2 5.39 5.252 11.39 9.419 18 12.5-26.426-42.267-43.592-88.1-51.5-137.5-3.62-10.571-7.787-20.904-12.5-31-9.647-18.628-19.814-36.962-30.5-55-12.6321-20.433-25.1321-40.933-37.5-61.5.8333-2.5 2.3333-3 4.5-1.5 21.6115 33.563 42.445 67.563 62.5 102 2.879 7.428 6.046 14.762 9.5 22-1.393-29.741-.393-59.408 3-89 1.129-7.945 2.629-15.779 4.5-23.5-8.102-5.047-13.102-12.214-15-21.5.93-3.593 3.263-5.259 7-5 2.375 6.416 5.541 12.416 9.5 18 6.997-29.659 17.164-58.159 30.5-85.5-.411-1.144-.744-2.311-1-3.5 1.984-6.601 3.65-13.268 5-20v-2c.667 0 1-.333 1-1 2.734-23.774 6.234-47.441 10.5-71 5.028-16.718 11.695-32.718 20-48 2.257-2.619 4.423-2.619 6.5 0-18.105 33.09-27.438 68.423-28 106-1.75 6.916-2.917 13.916-3.5 21 27.637-48.655 63.637-90.322 108-125 2.648-4.444 4.815-9.111 6.5-14 2.11-.953 3.277-2.619 3.5-5 7.928-26.286 15.761-52.62 23.5-79 2.062-1.261 3.728-.761 5 1.5-6.178 25.553-13.511 50.719-22 75.5-1.886 4.124-3.886 8.291-6 12.5 25.055-16.375 51.388-31.042 79-44 4.877-5.373 9.544-10.873 14-16.5 1.333-.667 2.333-1.667 3-3 .667 0 1-.333 1-1 .838-.342 1.172-1.008 1-2 8.3-8.469 16.467-17.136 24.5-26 21.213-25.544 42.046-51.3774 62.5-77.5 3.611-1.2542 5.111-.0876 4.5 3.5-23.909 31.4098-48.743 62.077-74.5 92Zm-142 678c4.222 1.741 8.555 3.074 13 4 .078 2.752.245 5.418.5 8-4.694-3.865-9.194-7.865-13.5-12Z" style="opacity:.994"/><path fill="#41494d" d="M535.5 122.5c.424-3.502-.91-5.835-4-7-9.33-12.967-9.164-25.9672.5-39 28.395-23.4732 60.562-30.9732 96.5-22.5 7.328 2.1654 10.495 6.9988 9.5 14.5-2.27 4.5978-4.937 8.9311-8 13-12.244 15.5791-26.411 29.079-42.5 40.5-17.311 11.051-34.644 11.218-52 .5Z" style="opacity:.997"/><path fill="#fdfdfd" d="M606.5 57.5c7.284.1023 10.284 3.6023 9 10.5-1.534.923-3.201 1.423-5 1.5-4.242-.4876-8.408-1.1543-12.5-2-.938-6.5611 1.896-9.8945 8.5-10Z" style="opacity:1"/><path fill="#abbb89" d="M319.5 204.5c8.489-24.781 15.822-49.947 22-75.5-1.272-2.261-2.938-2.761-5-1.5-7.739 26.38-15.572 52.714-23.5 79-.223 2.381-1.39 4.047-3.5 5-1.511-1.976-2.344-4.309-2.5-7-1.72-12.477-3.22-24.977-4.5-37.5 1.822-12.799 5.655-24.966 11.5-36.5 10.833-17.667 21.667-35.3333 32.5-53 2.449-1.4097 4.616-1.0763 6.5 1 6.307 16.9775 7.307 34.311 3 52-5.512 26.682-16.179 51.016-32 73-1.356.88-2.856 1.214-4.5 1Z" style="opacity:.999"/><path fill="#abbb89" d="M730.5 158.5c1.242-.543 2.575-.877 4-1 30.5 1.722 60.833 5.056 91 10 4.837.619 6.503-1.215 5-5.5-40.166-9.355-80.833-12.855-122-10.5.975-1.693 2.308-3.193 4-4.5 13.825-8.386 28.825-12.719 45-13 24.556-2.264 48.556.403 72 8 19.58 7.377 39.08 14.877 58.5 22.5.781 1.444.614 2.777-.5 4-24.439 13.324-50.439 18.157-78 14.5-25.396-4.515-50.063-11.515-74-21-2.084-.697-3.751-1.864-5-3.5Z" style="opacity:1"/><path fill="#87956a" d="M708.5 151.5c41.167-2.355 81.834 1.145 122 10.5 1.503 4.285-.163 6.119-5 5.5-30.167-4.944-60.5-8.278-91-10-1.425.123-2.758.457-4 1-7.738-.356-15.405.144-23 1.5 44.188 12.922 83.854 33.922 119 63 3.798 1.783 7.798 2.616 12 2.5 0 .667.333 1 1 1 18.288 2.129 36.621 3.795 55 5 15.692-.931 31.358-1.764 47-2.5 1.513 2.454.846 4.121-2 5-21.136 5.15-42.469 6.65-64 4.5h-2c-2.729-1.03-5.396-1.03-8 0-8.036-.927-16.036-1.76-24-2.5 16.794 15.123 31.794 31.79 45 50 6.138 1.878 12.138 4.045 18 6.5 1.03 2.604 1.03 5.271 0 8-3.062-.554-6.062-1.054-9-1.5 12.133 17.493 22.633 35.993 31.5 55.5 12.953 9.554 25.786 19.221 38.5 29 8.634 7.802 16.801 16.135 24.5 25 15.4 19.803 30.07 40.137 44 61 5.22 8.416 8.72 17.416 10.5 27-1.64.214-3.14-.12-4.5-1-20.85-38.843-47.012-73.676-78.5-104.5-.594-.464-1.261-.631-2-.5-7.605-6.284-15.605-11.784-24-16.5 17.319 42.448 27.152 86.615 29.5 132.5 2.413 2.562 4.08 5.562 5 9 3.237 11.537 6.737 22.871 10.5 34 9.03 33.116 18.53 66.116 28.5 99 4.31 15.553 8.14 31.22 11.5 47-.11.942-.44 1.775-1 2.5-1.94.743-3.77.576-5.5-.5-13.62-43.518-25.789-87.184-36.5-131-3.673-15.024-7.506-30.024-11.5-45-.184 65.928-14.017 128.762-41.5 188.5 2.177 1.497 3.51 3.497 4 6-2.173 9.725-3.506 19.558-4 29.5-2.222.059-3.222 1.225-3 3.5.961 2.59 1.628 5.257 2 8-3.758 41.744-5.758 83.578-6 125.5-4.69 1.827-7.19.161-7.5-5-2.443-35.057-1.943-70.057 1.5-105 2.003-15.356 3.836-30.689 5.5-46-11.722 22.535-25.222 43.869-40.5 64 2.205 8.956 2.538 17.956 1 27-2.042 2.091-4.375 2.424-7 1-.072-6.562-.239-13.228-.5-20-9.59 12.261-19.924 23.928-31 35 .096 4.088-.904 8.088-3 12-5.788 11.907-11.288 23.907-16.5 36-14.609 30.566-26.443 62.233-35.5 95-2.261 7.127-5.094 13.96-8.5 20.5-1.049.492-2.049.326-3-.5-1.131-1.574-1.298-3.241-.5-5 7.333-23.333 14.667-46.667 22-70 2.279-7.224 5.612-13.891 10-20 .662-2.313 1.162-4.646 1.5-7 7.218-16.424 14.384-32.757 21.5-49-30.124 28.424-64.291 50.924-102.5 67.5-.749 1.734-1.249 3.567-1.5 5.5-2.351 5.38-5.184 10.38-8.5 15-2.027.162-4.027-.005-6-.5-.837-1.011-1.17-2.178-1-3.5-.131-.739.036-1.406.5-2 4.463-2.624 7.629-6.29 9.5-11-10.075 3.689-20.075 7.356-30 11-1.291-.237-2.291.096-3 1h-1c-1.291-.237-2.291.096-3 1-1.291-.237-2.291.096-3 1-5.313 1.161-10.646 2.328-16 3.5-12.618 5.699-24.951 11.866-37 18.5-41.29 21.312-82.29 43.145-123 65.5-8.338 3.84-16.672 7.67-25 11.5-3.845-.77-4.511-2.43-2-5 36.482-19.07 72.482-38.905 108-59.5 9.904-5.119 19.904-9.953 30-14.5.667 0 1-.333 1-1h1c.667 0 1-.333 1-1h1c6.307-3.153 12.64-6.32 19-9.5-8.012.568-16.012.401-24-.5-1.044-4.681.623-7.848 5-9.5 35.271-7.733 69.604-18.4 103-32 11.65-5.491 22.983-11.491 34-18-10.007 1.167-20.007 2.667-30 4.5-18.066 1.005-36.066 2.671-54 5-4.623-.259-5.29-2.092-2-5.5 4.223-1.472 8.557-2.472 13-3 18.738-1.34 37.405-3.34 56-6 .556-.383.889-.883 1-1.5 17.738-3.19 34.738-8.69 51-16.5 39.548-28.546 72.548-63.212 99-104-4.669 1.83-9.336 3.997-14 6.5-24.239 11.45-48.572 22.95-73 34.5-4.988.694-6.488-1.139-4.5-5.5 2.383-2.773 5.217-4.939 8.5-6.5 24.847-11.924 49.514-24.091 74-36.5 9.422-3.613 17.255-9.28 23.5-17 9.978-17.972 17.978-36.639 24-56-1.011.837-2.178 1.17-3.5 1-3.41-1.383-4.41-3.717-3-7 2.078-2.551 4.744-4.384 8-5.5 1.952-2.074 3.785-4.241 5.5-6.5 11.961-37.767 18.295-76.434 19-116-2.857 5.055-5.691 10.055-8.5 15-2.043 1.079-3.376 2.746-4 5-.667 0-1 .333-1 1-9.335 12.174-18.502 24.507-27.5 37-15.493 17.493-31.66 34.326-48.5 50.5-2 1.333-4 2.667-6 4-1.135.749-2.135.583-3-.5 16.685-18.184 33.185-36.517 49.5-55 10.921-15.915 22.921-30.915 36-45 .483-.948.649-1.948.5-3 5.161-6.308 9.328-13.308 12.5-21-.692-50.128-10.359-98.462-29-145 .658 7.69.491 15.357-.5 23-.446 14.339-2.946 28.339-7.5 42-4.333 10.667-8.667 21.333-13 32-9.663 16.993-18.496 34.327-26.5 52-.852-7.254.315-14.254 3.5-21 12.591-23.513 23.258-47.846 32-73 3.957-12.865 5.791-25.865 5.5-39 .582-13.704-.918-27.371-4.5-41-34.005-67.672-84.505-119.172-151.5-154.5-8.106-4.231-16.439-7.564-25-10 9.899 12.329 19.899 24.496 30 36.5 0 .667.333 1 1 1 0 .667.333 1 1 1 26.5 34.342 51.667 69.675 75.5 106 6.476 9.283 11.642 19.283 15.5 30-.368 1.41-1.201 2.41-2.5 3-30.463-47.681-63.296-93.348-98.5-137-11.628-15.741-23.628-31.241-36-46.5-22.644-6.537-45.477-12.037-68.5-16.5-1.357-6.591.143-12.424 4.5-17.5 9.792-.102 19.458 1.065 29 3.5 7.288-1.374 14.621-2.374 22-3Zm203 621c-1.398-1.609-3.065-2.442-5-2.5-7.714 16.683-12.714 34.183-15 52.5-4.077-3.19-8.744-4.857-14-5 1.538-9.044 1.205-18.044-1-27 15.278-20.131 28.778-41.465 40.5-64-1.664 15.311-3.497 30.644-5.5 46Zm-194 144c-1.871 4.71-5.037 8.376-9.5 11-.464.594-.631 1.261-.5 2-.973-.487-1.973-.987-3-1.5-5.657-.499-11.324-.666-17-.5 9.925-3.644 19.925-7.311 30-11Z" style="opacity:.995"/><path fill="#abbb89" d="M492.5 159.5c13.77 3.093 26.77 8.26 39 15.5 17.667 12.333 35.333 24.667 53 37 14.238 7.706 29.072 13.872 44.5 18.5 1.512-.757 2.846-1.757 4-3 .688-.832.521-1.498-.5-2-14.035-4.957-27.702-10.79-41-17.5-18.507-12.42-36.841-25.087-55-38-6.485-4.163-13.485-7.163-21-9-.752-.671-1.086-1.504-1-2.5.558-1.29 1.558-2.123 3-2.5 11.504-1.648 22.838-.648 34 3 29.685 8.753 55.185 24.253 76.5 46.5 12.465 12.792 23.798 26.458 34 41 .667 1.333.667 2.667 0 4-45.95 5.976-86.784-5.524-122.5-34.5-15.631-13.96-29.464-29.46-41.5-46.5-2.333-2-4.667-4-7-6-.3-1.566.2-2.899 1.5-4Zm-294 170c.562-37.577 9.895-72.91 28-106-2.077-2.619-4.243-2.619-6.5 0-8.305 15.282-14.972 31.282-20 48-4.266 23.559-7.766 47.226-10.5 71-.667 0-1 .333-1 1v2c-.923.803-1.923.97-3 .5-10.485-17.089-14.318-35.589-11.5-55.5 4.133-31.413 15.133-60.08 33-86 9.792-12.128 19.959-23.961 30.5-35.5 1.634-.494 3.301-.66 5-.5 11.189 40.155 6.689 78.488-13.5 115-9.918 14.162-19.084 28.829-27.5 44-.857.925-1.857 1.592-3 2Z" style="opacity:.999"/><path fill="#41494d" d="M439.5 248.5c-5.508-1.832-11.175-3.499-17-5-.342-.838-1.008-1.172-2-1-13.599-5.265-23.265-14.599-29-28 3.59-2.622 3.924-5.622 1-9 1.8-6.774 5.467-12.274 11-16.5 21.785-13.952 44.452-15.285 68-4 13.877 6.393 26.543 14.56 38 24.5 3.648 4.057 3.815 8.39.5 13-18.864 20.573-42.364 29.239-70.5 26Z" style="opacity:.997"/><path fill="#fdfdfd" d="M457.5 190.5c6.208 1.125 12.208 2.958 18 5.5 2.987 3.292 4.153 7.125 3.5 11.5-2.243 1.782-4.743 2.282-7.5 1.5-6.029-1.517-11.696-3.85-17-7-1.074-.739-1.741-1.739-2-3 1.479-2.971 3.145-5.804 5-8.5Z" style="opacity:1"/><path fill="#acbb89" d="M865.5 238.5c2.604-1.03 5.271-1.03 8 0 .667 1.333 1.333 1.333 2 0 21.531 2.15 42.864.65 64-4.5 2.846-.879 3.513-2.546 2-5-15.642.736-31.308 1.569-47 2.5-18.379-1.205-36.712-2.871-55-5-.667 0-1-.333-1-1 .074-1.911 1.074-3.078 3-3.5 30.946-10.778 62.612-13.445 95-8 18.742 3.282 37.409 6.948 56 11 1.435 2.267 1.102 4.267-1 6-23.038 13.457-47.872 21.29-74.5 23.5-17.366-.8-33.866-4.967-49.5-12.5-1.323-.816-1.989-1.983-2-3.5Z" style="opacity:.999"/><path fill="#abbb89" d="M757.5 231.5c35.204 43.652 68.037 89.319 98.5 137 1.299-.59 2.132-1.59 2.5-3-3.858-10.717-9.024-20.717-15.5-30-23.833-36.325-49-71.658-75.5-106-.667 0-1-.333-1-1-.667 0-1-.333-1-1-.016-1.984.984-2.984 3-3 10.434 2.884 20.101 7.384 29 13.5 34.797 26.747 58.297 61.247 70.5 103.5 5.6 22.002 10.434 44.169 14.5 66.5-.601 1.605-1.601 2.938-3 4-10.072-4.686-19.738-10.353-29-17-14.816-11.484-28.316-24.317-40.5-38.5-20.965-29.923-38.298-61.923-52-96-2.986-9.406-4.486-18.906-4.5-28.5 1.293-.49 2.627-.657 4-.5Zm-337 11c.342.838 1.008 1.172 2 1 5.825 1.501 11.492 3.168 17 5-2.574 6.098-6.574 11.265-12 15.5-30.756 23.044-64.756 39.71-102 50-7.667.667-15.333.667-23 0-11.936-2.651-23.936-4.984-36-7-.837-1.011-1.17-2.178-1-3.5 28.152-11.22 56.819-21.387 86-30.5 8.521-2.63 17.187-4.63 26-6 4.107-.875 4.773-2.709 2-5.5-8.451-.349-16.784.818-25 3.5-28.317 8.828-56.317 18.328-84 28.5 21.626-25.668 48.959-42.501 82-50.5 22.622-4.328 45.288-4.494 68-.5Z" style="opacity:.999"/><path fill="#41494d" d="M904.5 300.5c1.03-2.729 1.03-5.396 0-8 8.353-11.172 19.686-16.505 34-16 22.378 2.685 43.044 10.185 62 22.5 6.48 3.998 12.31 8.832 17.5 14.5 3.75 6.743 2.92 12.909-2.5 18.5-9.72 5.795-20.216 8.961-31.5 9.5-23.012 1.858-44.512-3.309-64.5-15.5-7.701-6.9-12.701-15.4-15-25.5Z" style="opacity:.996"/><path fill="#fdfdfd" d="M976.5 293.5c7.012 2.005 13.678 4.839 20 8.5 2.077 8.254-.923 10.92-9 8-4.992-2.161-9.659-4.828-14-8-3.071-4.288-2.071-7.122 3-8.5Z" style="opacity:1"/><path fill="#41494d" d="M144.5 436.5c-3.737-.259-6.07 1.407-7 5-16.725 5.734-29.892 1.067-39.5-14-15.8987-27.057-20.8987-56.057-15-87 3.5985-13.216 12.0985-18.383 25.5-15.5 5.018 1.227 9.685 3.227 14 6 11.758 8.423 22.258 18.256 31.5 29.5 14.381 17.964 16.381 37.298 6 58-4.938 6.218-10.105 12.218-15.5 18Z" style="opacity:.997"/><path fill="#ea2b01" d="M562.5 328.5c19.717 1.302 39.217 1.302 58.5 0 5.17.467 10.337.967 15.5 1.5 1.829.273 3.329 1.107 4.5 2.5 1.097 3.884 1.597 7.884 1.5 12-.935 46.384-1.268 93.05-1 140 40.335-.167 80.668 0 121 .5 11.715.112 23.381.779 35 2 .874 3.366 1.874 6.7 3 10-.946 7.457-1.279 14.791-1 22 .872 29.93 1.539 59.93 2 90-.097 12.849-.597 25.683-1.5 38.5-.75.626-1.584 1.126-2.5 1.5-52.327 1.16-104.66 1.66-157 1.5.018 50.371.518 100.704 1.5 151-2.324 1.219-4.491 2.552-6.5 4-18.953-1.594-37.953-2.594-57-3-29.506.325-59.006.658-88.5 1-3.147.055-5.814-.945-8-3-1.237-39.473-1.07-78.973.5-118.5-1.003-11.87-2.336-23.703-4-35.5-14.296.097-28.629-.237-43-1-23.839.63-47.339 1.297-70.5 2-11.758-.822-23.591-1.322-35.5-1.5-2.019-.45-3.852-1.283-5.5-2.5-.19-51.468-.357-102.968-.5-154.5 2.254-3.828 5.587-6.328 10-7.5 13.019.648 26.019 1.315 39 2 33.822-.017 67.822-.017 102 0-.167-49.001 0-98.001.5-147 1.128-1.845 1.628-3.845 1.5-6 15.137-.65 30.137-.65 45 0 13.857.015 27.523-.651 41-2Zm116 185c1.317 5.345.817 10.678-1.5 16-12.987 13.154-26.154 26.154-39.5 39-13.288-11.787-26.122-24.12-38.5-37-5.185-11.013-3.019-20.513 6.5-28.5 7.187-4.787 14.187-4.454 21 1 3.849 3.682 7.516 7.515 11 11.5 3.457-3.958 7.123-7.792 11-11.5 10.117-6.62 19.284-5.454 27.5 3.5 1.122 1.907 1.955 3.907 2.5 6Z" style="opacity:1"/><path fill="#fefefe" d="M88.5 337.5c2.3228-.291 4.6561.209 7 1.5 1.4801 2.247 2.1467 4.747 2 7.5-.401 5.073-1.2344 10.073-2.5 15-4.4009 4.314-7.4009 3.314-9-3-.6667-6.333-.6667-12.667 0-19 .9947-.566 1.828-1.233 2.5-2Z" style="opacity:1"/><path fill="#abbb89" d="M187.5 456.5c.528-1.221 1.195-2.387 2-3.5 27.527-23.532 56.194-45.532 86-66 1.48-2.55.813-4.383-2-5.5-31.201 20.243-60.535 42.576-88 67-.199-3.441.301-6.774 1.5-10 12.401-22.401 29.568-40.235 51.5-53.5 12.155-5.908 23.822-12.575 35-20 12.547-6.682 25.881-10.849 40-12.5 3.696.283 7.363.783 11 1.5 1.172.419 2.172 1.085 3 2-1.07 2.742-2.57 5.242-4.5 7.5-8.136 9.137-16.636 17.97-25.5 26.5-21.385 16.386-43.052 32.386-65 48-13.701 6.341-27.368 12.674-41 19-1.428.579-2.762.412-4-.5Zm772-66c.739-.131 1.406.036 2 .5 31.488 30.824 57.65 65.657 78.5 104.5 1.36.88 2.86 1.214 4.5 1-1.78-9.584-5.28-18.584-10.5-27-13.93-20.863-28.6-41.197-44-61-7.699-8.865-15.866-17.198-24.5-25 .12-1.086.787-1.753 2-2 55.36 19.866 90.86 58.199 106.5 115 2.99 11.268 5.32 22.601 7 34-1 .667-2 1.333-3 2-26.19-11.501-50.69-25.668-73.5-42.5-29.471-27.074-44.471-60.241-45-99.5Zm-824 163c-20.055-34.437-40.8885-68.437-62.5-102-2.1667-1.5-3.6667-1-4.5 1.5 12.3679 20.567 24.8679 41.067 37.5 61.5 10.686 18.038 20.853 36.372 30.5 55-1.238.912-2.572 1.079-4 .5-10.667-5.667-21.333-11.333-32-17-14.0823-9.422-24.5823-21.922-31.5-37.5-16.8559-37.609-24.1892-76.943-22-118 1.4814-2.58 3.648-3.413 6.5-2.5 55.566 38.287 83.4 91.454 83.5 159.5-.383-.556-.883-.889-1.5-1Z" style="opacity:.999"/><path fill="#acbc89" d="M916.5 396.5c.291 13.135-1.543 26.135-5.5 39-8.742 25.154-19.409 49.487-32 73-3.185 6.746-4.352 13.746-3.5 21 8.004-17.673 16.837-35.007 26.5-52 4.333-10.667 8.667-21.333 13-32 4.554-13.661 7.054-27.661 7.5-42 1.29.558 2.123 1.558 2.5 3 3.58 15.754 3.246 31.421-1 47-9.721 29.102-22.387 56.769-38 83-11.025 16.004-22.358 31.671-34 47-.772-.145-1.439-.478-2-1-13.323-74.706 8.344-137.039 65-187 .383.556.883.889 1.5 1Z" style="opacity:.998"/><path fill="#acbb89" d="M181.5 590.5c3.946-9.226 8.446-18.226 13.5-27 11.51-17.02 23.51-33.686 36-50 4.55-6.6 8.716-13.433 12.5-20.5-.77-2.978-2.437-3.811-5-2.5-10.919 16.418-22.419 32.418-34.5 48-7.345 10.692-14.179 21.692-20.5 33-.667 0-1 .333-1 1-.542 3.412-1.875 6.412-4 9-.722-.418-1.222-1.084-1.5-2-2.372-13.244-1.372-26.244 3-39 9.942-31.573 26.775-58.739 50.5-81.5 16-13.333 32-26.667 48-40 1.941-.743 3.774-.576 5.5.5-1.758 22.402-4.425 44.736-8 67-8.122 29.767-23.289 55.267-45.5 76.5-12.064 8.394-24.397 16.394-37 24-3.13 2.128-5.963 4.628-8.5 7.5-1.405-1.231-2.571-2.564-3.5-4Z" style="opacity:.999"/><path fill="#abbb89" d="M939.5 546.5c.149 1.052-.017 2.052-.5 3-13.079 14.085-25.079 29.085-36 45-16.315 18.483-32.815 36.816-49.5 55 .865 1.083 1.865 1.249 3 .5 2-1.333 4-2.667 6-4 16.84-16.174 33.007-33.007 48.5-50.5 8.998-12.493 18.165-24.826 27.5-37 .667 0 1-.333 1-1 .624-2.254 1.957-3.921 4-5 1.558 10.392.058 20.392-4.5 30-9.093 23.431-23.26 43.264-42.5 59.5-20.579 16.565-42.746 30.732-66.5 42.5-1.011-.837-2.178-1.17-3.5-1 3.693-27.25 13.193-52.25 28.5-75 11.71-19.709 26.877-36.209 45.5-49.5 11.712-5.848 23.712-11.015 36-15.5 1.235.84 2.235 1.84 3 3Zm38 20c10.711 43.816 22.88 87.482 36.5 131 1.73 1.076 3.56 1.243 5.5.5.56-.725.89-1.558 1-2.5-3.36-15.78-7.19-31.447-11.5-47-9.97-32.884-19.47-65.884-28.5-99 .722-.418 1.222-1.084 1.5-2 28.92 16.147 46.92 40.48 54 73 3.57 16.306 5.4 32.806 5.5 49.5-1.87 26.854-4.04 53.688-6.5 80.5-2.15 1.944-4.65 2.444-7.5 1.5-11.98-12.973-22.81-26.807-32.5-41.5-9.082-17.657-15.082-36.323-18-56-3.585-28.911-3.919-57.911-1-87 .383-.556.883-.889 1.5-1Z" style="opacity:.999"/><path fill="#abbb89" d="M224.5 728.5c-.166-5.344.001-10.677.5-16 3.656-19.956 6.99-39.956 10-60 1.173-8.03 1.34-16.03.5-24-1.759-1.254-3.259-.921-4.5 1-1.136 11.69-2.469 23.357-4 35-4.143 17.542-7.309 35.209-9.5 53-1.532.87-3.032.536-4.5-1-7.367-18.734-9.367-38.067-6-58 5.261-19.784 10.928-39.451 17-59 4.867-11.693 12.7-20.693 23.5-27 .586.209 1.086.543 1.5 1 7.856 23.753 12.689 48.086 14.5 73 .347 21.776-4.82 42.109-15.5 61-5.977 8.307-12.31 16.307-19 24-1.94-.457-3.44-1.457-4.5-3Z" style="opacity:1"/><path fill="#abbb8a" d="M182.5 725.5c-1.21-.432-2.21-1.099-3-2-.667 0-1-.333-1-1-.667 0-1-.333-1-1-18.6-20.437-37.433-40.771-56.5-61-8.389-9.121-16.055-18.787-23-29-2.2289-2.656-4.0622-2.323-5.5 1 9.547 14.051 20.047 27.385 31.5 40 13.406 13.402 26.073 27.402 38 42 6.729 6.897 13.562 13.563 20.5 20-.283.789-.783 1.456-1.5 2-47.85-14.857-83.1829-44.523-106-89-8.6039-16.182-14.6039-33.182-18-51 1.2419-1.372 2.7419-2.372 4.5-3 45.926 16.703 80.759 46.37 104.5 89 6.735 13.465 12.901 27.132 18.5 41-.247 1.213-.914 1.88-2 2Z" style="opacity:.999"/><path fill="#41494d" d="M919.5 665.5c-1.41 3.283-.41 5.617 3 7-4.471 30.638-22.138 48.138-53 52.5-16.123 4.714-31.456 3.048-46-5-5.905-5.469-7.405-11.969-4.5-19.5 14.588-14.562 31.755-25.062 51.5-31.5 14.305-5.276 28.972-7.276 44-6 1.693.847 3.36 1.68 5 2.5Z" style="opacity:.996"/><path fill="#fbfbfb" d="M870.5 705.5c7.405-.024 8.738 2.809 4 8.5-6.599 1.548-13.266 2.215-20 2-3.432-2.367-3.765-5.034-1-8 5.788-.961 11.455-1.795 17-2.5Z" style="opacity:1"/><path fill="#41494d" d="M306.5 823.5c-2.638-2.536-4.971-2.203-7 1-4.445-.926-8.778-2.259-13-4-.667 0-1-.333-1-1-.667 0-1-.333-1-1-.667 0-1-.333-1-1-1.667-1.333-3.333-2.667-5-4-.667 0-1-.333-1-1-4.667-4-9-8.333-13-13-.667 0-1-.333-1-1-.667 0-1-.333-1-1-.667 0-1-.333-1-1-5.547-20.715-5.047-41.382 1.5-62 3.936-8.731 9.436-16.231 16.5-22.5 7.136-3.455 14.136-3.122 21 1 10.995 8.483 17.495 19.65 19.5 33.5 3.286 18.006 3.286 36.006 0 54-1.606 7.374-4.439 14.207-8.5 20.5-1.693.847-3.36 1.68-5 2.5Z" style="opacity:.997"/><path fill="#fdfdfd" d="M277.5 733.5c4.025-.922 6.359.578 7 4.5-1.127 7.673-2.96 15.173-5.5 22.5-2.667 4-5.333 4-8 0-1.33-7.074-.664-14.074 2-21 .804-2.646 2.304-4.646 4.5-6Z" style="opacity:1"/><path fill="#abbb89" d="M878.5 744.5c-24.486 12.409-49.153 24.576-74 36.5-3.283 1.561-6.117 3.727-8.5 6.5-1.988 4.361-.488 6.194 4.5 5.5 24.428-11.55 48.761-23.05 73-34.5-.65 3.64-2.15 6.973-4.5 10-16.292 18.404-36.458 30.571-60.5 36.5-18.329 3.866-36.496 8.366-54.5 13.5-2.154-.82-3.654-2.32-4.5-4.5 10.402-17.081 23.069-32.415 38-46 15.949-11.308 33.283-19.975 52-26 12.915-2.758 25.915-3.258 39-1.5v4Zm-615 86c-14.101-6.55-28.101-13.383-42-20.5-28.511-11.922-56.511-24.922-84-39-4.324-.045-4.99 1.621-2 5 2.667 1.667 5.333 3.333 8 5 39.672 18.503 79.338 37.003 119 55.5 1.675.368 2.675 1.368 3 3-33.523 1.635-65.857-3.865-97-16.5-13.142-6.819-25.475-14.819-37-24-16.733-16.736-34.0659-32.736-52-48-2.2744-1.765-3.9411-3.932-5-6.5.1799-1.054.5133-2.054 1-3 51.71-1.826 98.71 12.007 141 41.5 16.372 13.193 32.372 26.859 48 41 1.719 1.87 2.719 4.037 3 6.5h-4Zm661-85c4.748 5.148 8.248 11.148 10.5 18 8.895 24.405 11.228 49.405 7 75-8.326 34.634-16.326 69.301-24 104-2 1.333-4 1.333-6 0-7.081-11.096-12.914-22.763-17.5-35 .039-1.083.373-2.083 1-3-1.515-2.047-2.349-4.381-2.5-7-3.913-24.948-4.413-49.948-1.5-75 2.286-18.317 7.286-35.817 15-52.5 1.935.058 3.602.891 5 2.5-3.443 34.943-3.943 69.943-1.5 105 .31 5.161 2.81 6.827 7.5 5 .242-41.922 2.242-83.756 6-125.5-.372-2.743-1.039-5.41-2-8-.222-2.275.778-3.441 3-3.5Z" style="opacity:.999"/><path fill="#d43600" d="M475.5 751.5c1.025.397 1.192 1.063.5 2-.464-.594-.631-1.261-.5-2Z" style="opacity:.016"/><path fill="#abbb89" d="M439.5 901.5c-1.75-1.159-2.75-2.826-3-5-.667 0-1-.333-1-1-12.909-19.472-25.076-39.472-36.5-60-7.581-10.828-14.915-21.828-22-33-3.473-5.273-7.639-9.939-12.5-14l-3 1.5c10.891 15.227 21.391 30.727 31.5 46.5 10.759 19.197 22.259 37.863 34.5 56-11.252 2.922-21.919 1.089-32-5.5-16.167-9.5-29-22.333-38.5-38.5-11.036-20.802-18.703-42.802-23-66-2.285-9.593-4.119-19.26-5.5-29 4.692.341 9.026 1.841 13 4.5 17.007 10.505 34.34 20.505 52 30 17.53 15.193 31.697 33.026 42.5 53.5 7.691 19.04 10.024 38.373 7 58-1.113.805-2.279 1.472-3.5 2Z" style="opacity:.999"/><path fill="#41494d" d="M877.5 817.5c5.256.143 9.923 1.81 14 5-2.913 25.052-2.413 50.052 1.5 75 .151 2.619.985 4.953 2.5 7-.627.917-.961 1.917-1 3-7.369 13.847-18.869 22.18-34.5 25-5.153.284-9.153-1.716-12-6-9.028-15.449-12.695-32.116-11-50 1.38-12.952 4.047-25.619 8-38 5.665-10.152 14.165-16.819 25.5-20 2.625 1.424 4.958 1.091 7-1Z" style="opacity:.998"/><path fill="#abbb89" d="M737.5 872.5c-.111.617-.444 1.117-1 1.5-18.595 2.66-37.262 4.66-56 6-4.443.528-8.777 1.528-13 3-3.29 3.408-2.623 5.241 2 5.5 17.934-2.329 35.934-3.995 54-5 .009 1.808-.491 3.475-1.5 5-28.401 16.2-58.568 20.366-90.5 12.5-11.257-2.718-22.591-5.051-34-7-2.307-1.828-1.974-3.494 1-5 16.512-10.426 33.512-20.092 51-29 19.571-7.062 39.571-8.395 60-4 9.137 2.601 18.137 5.601 27 9 1.824 2.152 2.157 4.652 1 7.5Zm82 9c2.459 1.552 3.959 3.885 4.5 7 1.95 10.714 1.617 21.38-1 32-3.322 18.289-8.655 35.956-16 53-11.373 21.579-22.873 43.08-34.5 64.5-2.525.9-4.692.4-6.5-1.5-.933-17.73-2.433-35.39-4.5-53 .117-12.804 2.617-25.137 7.5-37 7.376-18.431 17.042-35.431 29-51 2.568-.531 5.068-.864 7.5-1-.338 2.354-.838 4.687-1.5 7-4.388 6.109-7.721 12.776-10 20-7.333 23.333-14.667 46.667-22 70-.798 1.759-.631 3.426.5 5 .951.826 1.951.992 3 .5 3.406-6.54 6.239-13.373 8.5-20.5 9.057-32.767 20.891-64.434 35.5-95Z" style="opacity:.999"/><path fill="#fcfdfd" d="M881.5 889.5c1.465.906 2.465 2.239 3 4-2.773 5.213-5.273 10.546-7.5 16-2.276 2.564-4.276 2.23-6-1 .188-5.402 1.854-10.402 5-15 1.5-1.969 3.333-3.302 5.5-4Z" style="opacity:1"/><path fill="#abbb89" d="M442.5 942.5c-47.875-4.142-94.542-13.975-140-29.5-4.667-1-6 .667-4 5 45.18 17.462 91.847 28.629 140 33.5-.754 2.591-2.421 4.424-5 5.5-34.625 9.575-68.625 7.575-102-6l-32-16c-14.122-9.933-29.122-18.433-45-25.5-1.333-1.667-1.333-3.333 0-5 21.231-6.723 42.898-8.556 65-5.5 41.178 5.504 80.178 17.837 117 37 2.157 1.912 4.491 3.579 7 5-.556.383-.889.883-1 1.5Z" style="opacity:.999"/><path fill="#41494d" d="M687.5 927.5c5.676-.166 11.343.001 17 .5 1.027.513 2.027 1.013 3 1.5-.17 1.322.163 2.489 1 3.5 1.973.495 3.973.662 6 .5 9.178 5.368 12.678 13.368 10.5 24-.741 5.632-2.407 10.965-5 16-17.566 25.057-41.066 42.22-70.5 51.5-15.298 3.53-23.631-2.47-25-18 8.655-26.307 22.655-49.307 42-69 3.733-2.523 7.399-5.023 11-7.5 1.291.237 2.291-.096 3-1 1.291.237 2.291-.096 3-1h1c1.291.237 2.291-.096 3-1Z" style="opacity:.996"/><path fill="#abbb89" d="M616.5 948.5h-1c-.667 0-1 .333-1 1h-1c-.667 0-1 .333-1 1-10.096 4.547-20.096 9.381-30 14.5-35.518 20.595-71.518 40.43-108 59.5-2.511 2.57-1.845 4.23 2 5 8.328-3.83 16.662-7.66 25-11.5 40.71-22.355 81.71-44.188 123-65.5 1.082 1.094 1.748 2.427 2 4-13.67 39.171-40.003 66-79 80.5-32.341 11.39-65.674 17.39-100 18-6.611.57-13.111 1.74-19.5 3.5-2.722-.44-4.556-1.94-5.5-4.5 33.167-52.93 79.834-87.925 140-105 14.555-2.722 29.221-4.555 44-5.5 3.573-.101 6.906.566 10 2v3Z" style="opacity:.999"/><path fill="#fdfdfd" d="M670.5 991.5c2.357-.163 4.69.003 7 .5 1.272 2.044.939 3.878-1 5.5-7.192 5.69-14.525 11.19-22 16.5-1 .67-2 .67-3 0-.76-1.44-1.426-2.94-2-4.5 1.031-1.2 1.865-2.53 2.5-4 5.966-5.05 12.133-9.718 18.5-14Z" style="opacity:1"/></svg>