<svg width="23" height="24" viewBox="0 0 23 24" fill="none" xmlns="http://www.w3.org/2000/svg">
    <path d="M20.9091 17.4545V7.63636H6.27273V17.4545H20.9091ZM20.9091 2.18182C21.4636 2.18182 21.9955 2.41169 22.3876 2.82086C22.7797 3.23003 23 3.78498 23 4.36364V17.4545C23 18.0332 22.7797 18.5882 22.3876 18.9973C21.9955 19.4065 21.4636 19.6364 20.9091 19.6364H6.27273C5.71818 19.6364 5.18635 19.4065 4.79423 18.9973C4.40211 18.5882 4.18182 18.0332 4.18182 17.4545V4.36364C4.18182 3.78498 4.40211 3.23003 4.79423 2.82086C5.18635 2.41169 5.71818 2.18182 6.27273 2.18182H7.31818V0H9.40909V2.18182H17.7727V0H19.8636V2.18182H20.9091ZM17.2814 10.9745L12.6395 15.8182L9.83773 12.8945L10.9459 11.7382L12.6395 13.5055L16.1732 9.81818L17.2814 10.9745ZM2.09091 21.8182H16.7273V24H2.09091C1.53637 24 1.00453 23.7701 0.612413 23.361C0.220292 22.9518 0 22.3968 0 21.8182V8.72727H2.09091V21.8182Z" fill="#fff"/>
</svg>
